<svg xmlns="http://www.w3.org/2000/svg" viewBox="0 0 368.11 368.5"><defs><style>.cls-1,.cls-2,.cls-4,.cls-5,.cls-6,.cls-7,.cls-8{fill:#fff;}.cls-1,.cls-2,.cls-5,.cls-7,.cls-8{stroke:#fff;}.cls-1,.cls-2,.cls-5,.cls-8{stroke-miterlimit:10;}.cls-1{stroke-width:0.5px;}.cls-2{font-size:37.35px;font-family:Landliebe, Landliebe;}.cls-2,.cls-7{stroke-width:0.25px;}.cls-3{letter-spacing:-0.03em;}.cls-5{font-size:19.75px;}.cls-5,.cls-6{font-family:Leander, Leander;}.cls-6{font-size:20.53px;}.cls-8{stroke-width:0.75px;}</style></defs><title>Asset 1</title><g id="Layer_2" data-name="Layer 2"><g id="Layer_1-2" data-name="Layer 1"><path class="cls-1" d="M350.52,132.54c-10.57-2.7-18.19-7.18-27.06-10.83a1.31,1.31,0,0,0-.93,0c-4.18,1.85-10.21-1-13.08-2.36a40.14,40.14,0,0,1-5-2.64,8.29,8.29,0,0,0-3-1.66,7.61,7.61,0,0,0-3.27.29,12,12,0,0,1-5.35.43c-3.09-.48-5-2-6.61-3.22a18.51,18.51,0,0,0-5.54-3.07,17.78,17.78,0,0,0-4.77-.58,33.17,33.17,0,0,1-3.85-.25,8.91,8.91,0,0,1-3.21-1.18,6.14,6.14,0,0,0-2.73-1,8.37,8.37,0,0,0-3.89.89c-3.32,1.4-5.51,3.29-8.28,4.9a61.7,61.7,0,0,1-13.88,6.4c-1-.45-1.94-.91-2.85-1.4-2.81-1.5-5.55-3.45-5.87-5.46-.14-.87.34-1.89-.49-2.72a8,8,0,0,0-2.93-1.54c-2.93-1-6.36-1.61-9.45-2.49a33.72,33.72,0,0,1-9.34-4.72c-2.72-1.77-5.12-3.65-7.64-5.48-1.21-.88-2.45-1.74-3.76-2.59A23.38,23.38,0,0,0,193.7,90c-1.64-.66-2.81.24-4.42-.12a3.68,3.68,0,0,1-2.41-2.18c-.65-1.09-1-2.93-3.28-3.6s-5.71,2.18-6.51,2.72c-3.09,2.09-5.79,4.3-8.54,6.48-5,4-9.73,8-14.95,12a31.73,31.73,0,0,1-7,4.25,10.06,10.06,0,0,1-4.73.85,10,10,0,0,0-2.68-.24,7.35,7.35,0,0,0-3.07,1.53l-.83.53a31.69,31.69,0,0,1-10.37-3l-1-.55c-1.05-.58-1.79-1.26-2.79-1.86a10.55,10.55,0,0,0-2-.87l-.45-.21c-1.77-.79-4.1-1.32-6-2.08s-3.44-1.51-5.13-2.28a16.11,16.11,0,0,0-4.81-1.54c-3.66-.49-6.56,1.48-8.34,2.6A93.47,93.47,0,0,1,81,109.48a25.25,25.25,0,0,1-8.45,2.3c-3.17.18-5.51-1.31-7.42-2.24-2.14-1-4.94-2.23-8-1.15-2.06.73-3.37,2.08-4.74,3.06-1.79,1.28-3.53,2.57-5.3,3.86-7,5.13-14.52,10.12-24.83,14-.33.12.14.33.47.21l0,0c1.76.24,9.18-2.7,10.05-3A78.39,78.39,0,0,0,51.2,116.33c1.11-.83,2.33-1.64,3.28-2.51a29.63,29.63,0,0,1,2.6-2.27,3.42,3.42,0,0,1,2-.8,5.61,5.61,0,0,1,2.54.72c1.36.64,2.45,1.34,4,1.91,3.06,1.17,6.36.78,9.59,0a93.41,93.41,0,0,0,12-4c4.11-1.63,8-3.33,11.64-5.17.86-.43,1.74-.86,2.69-1.26a4.23,4.23,0,0,1,3.6.25c2,.87,3.63,1.87,5.51,2.78,1.7.82,4.16,1,5.67,2,1.29.8,2,1.75,3.37,2.53,3,1.76,8.41,2.48,12.7,3.39l.25,0-1.07.74-.35.24a2.25,2.25,0,0,0-.59,0,45.64,45.64,0,0,1-14.24-3.18c-3.92-1.53-6.71-3.46-10.19-5.16a9.74,9.74,0,0,0-8.19,0c-2,.8-3.68,1.78-5.54,2.64a39.27,39.27,0,0,1-7,2.45c-.47.12-.26.46.27.46a73.75,73.75,0,0,0,7.63-.48c2.38-.27,5.43-1,7.8-.42a13,13,0,0,1,3.58,1.7,12.37,12.37,0,0,0,4.2,1.41,1,1,0,0,0,.52-.06c1.59-.92,6.31.86,7.79,1.29A52.82,52.82,0,0,0,128,117.13c-1.88,1.28-3.79,2.55-5.79,3.8-3.18,2-6.59,3.87-10.14,5.7a49.21,49.21,0,0,1-5,2.39c-1.69.65-3.54.34-5.45.1a.72.72,0,0,0-.61.16c-2.18,2.56-5.38,4.81-8.34,7.19-2.51,2-5,4.15-9.35,5.46h0a.66.66,0,0,0-.25.08h0c-.24.07-.18.2,0,.26a.73.73,0,0,0,.51.08,27,27,0,0,0,10-3.6c2.37-1.35,3.48-3.11,5.19-4.63A9.69,9.69,0,0,1,102.5,132a18.35,18.35,0,0,1,4.11-.37,15.7,15.7,0,0,0,3-.44,16.68,16.68,0,0,0,4.29-1.87l5-2.82c3.62-2,7.16-4.09,10.75-6.13,1.58-.9,3-1.84,4.39-2.78s2.81-1.7,4-2.61a8.83,8.83,0,0,1,4.07-2c.92-.14,1.91.22,2.86.14a9.09,9.09,0,0,0,2.49-.52,31.87,31.87,0,0,0,8.17-4.89c2.85-2.11,6.09-4.12,9-6.23s5.94-4.45,8.74-6.72c2.06-1.67,3.61-3.51,5.9-5.11a5.47,5.47,0,0,1,2.43-.95,2.48,2.48,0,0,1,2,.73c.86.7,1.56,1.45,2.42,2.16a5.62,5.62,0,0,0,2.93,1.49,19.81,19.81,0,0,1,3.62.58A9.57,9.57,0,0,1,195,94.92a69.8,69.8,0,0,0,8.13,5c3.73,1.9,7,4,10.81,5.86a49.84,49.84,0,0,0,4.85,2.09c1.8.67,3.94,1.18,5.62,1.91a3.35,3.35,0,0,1,1.91,2,19.26,19.26,0,0,0,1.34,2.62,16.42,16.42,0,0,0,4.71,4.54c5,3.35,12.3,5.85,19.09,8.39,3.61,1.35,7.22,2.72,10.41,4.29a98.16,98.16,0,0,1,9.31,5.43,70.31,70.31,0,0,0,8.71,4.73,30.85,30.85,0,0,0,4.75,1.64,46.91,46.91,0,0,1,5.82,1.67,1.12,1.12,0,0,0,1-.07c.53,0,.83-.41.25-.59a90.75,90.75,0,0,1-10.88-4,50.37,50.37,0,0,1-8.65-5.15c-2.85-2-5.37-4.18-8.34-6.2a47.48,47.48,0,0,0-8.25-4.32c-3.57-1.5-7.44-2.85-11.12-4.3l.52-.18a34.29,34.29,0,0,0,5.46-1.68l.33-.09a1,1,0,0,0,.59-.3,43.93,43.93,0,0,0,5.33-2.8c1-.62,2-1.25,2.89-1.9,1.36-.87,2.63-1.76,3.85-2.68a17,17,0,0,0,2.6-2.24,20.24,20.24,0,0,0,4.18,1.39,61.1,61.1,0,0,0,6.94.54c4.27.37,6.94,2.74,8.94,4.27,1.55,1.18,3.61,3.05,6.62,3.58a14.05,14.05,0,0,0,3.85,0c1.51-.15,3.22-.55,4.4.08,2.43,1.28,4.24,2.82,6.68,4.12a24.42,24.42,0,0,0,9,2.83,36.24,36.24,0,0,0,5.24,0,9.74,9.74,0,0,1,4.27.8c3.84,1.48,8,2.66,12.19,3.94,3.68,1.13,7.47,2.18,11.26,3.23.57.16,1.1-.11,1-.34C350.92,132.9,351,132.66,350.52,132.54ZM83.73,125.38l-.27.25q.77-.76,1.51-1.54A14.59,14.59,0,0,1,83.73,125.38Zm140.75-17.5,1.54.91.14.08Q225.29,108.39,224.48,107.88Z"/><text class="cls-2" transform="translate(100.76 213.37) scale(1.02 1)"><tspan class="cls-3">T</tspan><tspan x="14.64" y="0">odd &amp; Emily</tspan></text><path class="cls-4" d="M7.15,239.89H367.5"/><path class="cls-4" d="M7.14,240.9c46.74,1.12,93.6.29,140.36.3l140.36,0c26.45,0,53.25,1.24,79.64-.71a.63.63,0,0,0,0-1.27c-23.44-1.73-47.19-.72-70.67-.71l-69.68,0-140.36,0c-26.53,0-53.11-.35-79.64.28a1,1,0,0,0,0,2Z"/><text></text><text class="cls-5" transform="translate(20.89 255.83) rotate(62.71) scale(0.97 1)">A</text><text class="cls-5" transform="matrix(0.52, 0.82, -0.84, 0.54, 28.65, 270.66)">U</text><text class="cls-5" transform="translate(37.96 285.15) rotate(52.31) scale(0.97 1)">G</text><text class="cls-5" transform="translate(48.86 299.06) rotate(46.98) scale(0.97 1)">U</text><text class="cls-5" transform="matrix(0.71, 0.65, -0.67, 0.74, 60.65, 311.46)">S</text><text class="cls-5" transform="translate(70.87 320.72) rotate(37.34) scale(0.97 1)">T</text><text class="cls-5" transform="matrix(0.81, 0.52, -0.54, 0.84, 84.9, 331.16)"> </text><text class="cls-5" transform="translate(93.85 336.87) rotate(29.53) scale(0.97 1)">1</text><text class="cls-5" transform="matrix(0.87, 0.42, -0.44, 0.9, 103.08, 342.05)">9</text><text class="cls-5" transform="matrix(0.89, 0.37, -0.38, 0.92, 113.78, 347.15)">,</text><text class="cls-5" transform="translate(122.16 350.59) rotate(19.38) scale(0.97 1)"> </text><text class="cls-5" transform="matrix(0.93, 0.26, -0.27, 0.96, 132.21, 354.08)">2</text><text class="cls-5" transform="translate(143.89 357.3) rotate(11.55) scale(0.97 1)">0</text><text class="cls-5" transform="matrix(0.96, 0.13, -0.13, 0.99, 156.76, 359.81)">1</text><text class="cls-5" transform="translate(167.3 361.19) rotate(3.91) scale(0.97 1)">7</text><text class="cls-5" transform="translate(179.75 361.9) rotate(0.96) scale(0.97 1)">,</text><text class="cls-5" transform="translate(188.81 361.97) rotate(-2.7) scale(0.97 1)"> </text><text class="cls-5" transform="translate(199.61 361.53) rotate(-7.5) scale(0.97 1)">O</text><text class="cls-5" transform="translate(218.47 358.9) rotate(-13.6) scale(0.97 1)">X</text><text class="cls-5" transform="matrix(0.91, -0.31, 0.33, 0.95, 236.12, 354.43)">F</text><text class="cls-5" transform="translate(250.12 349.6) rotate(-24.45) scale(0.97 1)">O</text><text class="cls-5" transform="translate(267.34 341.59) rotate(-30.28) scale(0.97 1)">R</text><text class="cls-5" transform="translate(282.28 332.75) rotate(-35.86) scale(0.97 1)">D</text><text class="cls-5" transform="translate(296.51 322.17) rotate(-40.07) scale(0.97 1)">,</text><text class="cls-5" transform="matrix(0.7, -0.66, 0.68, 0.73, 303.4, 316.34)"> </text><text class="cls-5" transform="matrix(0.65, -0.71, 0.74, 0.67, 311.32, 309.02)">O</text><text class="cls-5" transform="translate(324.04 294.89) rotate(-53.51) scale(0.97 1)">H</text><text class="cls-5" transform="translate(335.25 279.3) rotate(-57.99) scale(0.97 1)">I</text><text class="cls-5" transform="translate(340.79 270.58) rotate(-62.38) scale(0.97 1)">O</text><path class="cls-4" d="M148.89,258.26l61.55,60.43"/><path class="cls-4" d="M148.52,258.63c9.42,11.19,20.48,21.22,30.89,31.49q7.68,7.57,15.38,15.11c4.92,4.84,9.67,10,15.25,14.13.61.44,1.51-.46,1.05-1.06-8.41-11.05-19.87-20.4-29.79-30.1-10.45-10.23-20.69-21.1-32-30.32a.53.53,0,0,0-.75.76Z"/><path class="cls-4" d="M151.9,315.73l55.52-54.52"/><path class="cls-4" d="M152.27,316.36C162.43,309.1,171.16,299,180,290.24c9.47-9.33,19.06-18.61,27.86-28.57a.66.66,0,0,0-.94-.93c-10.12,8.63-19.58,18.06-29.09,27.36-8.91,8.72-19.15,17.25-26.6,27.27-.43.58.42,1.4,1,1Z"/><path class="cls-4" d="M156.44,264.87,195.86,305"/><path class="cls-4" d="M156.32,265q9.74,10.14,19.64,20.12,4.85,4.92,9.68,9.84c3.3,3.37,6.48,7.09,10.1,10.12.13.11.36-.06.24-.2-2.88-3.56-6.42-6.7-9.63-10l-9.68-9.85q-10-10.21-20.12-20.33c-.16-.16-.39.1-.24.26Z"/><path class="cls-4" d="M179.56,284.86,206.4,313"/><path class="cls-4" d="M179.4,285q6.81,7.29,13.66,14.54c4.32,4.54,8.44,9.61,13.24,13.64.15.13.32-.1.22-.24-3.87-5.1-8.87-9.57-13.29-14.2s-9-9.34-13.53-14c-.18-.18-.48.07-.3.26Z"/><path class="cls-4" d="M178.06,286.67l10.69-10.52"/><path class="cls-4" d="M178.27,286.9a118.22,118.22,0,0,0,10.65-10.57.25.25,0,0,0-.35-.37,118,118,0,0,0-10.74,10.48.32.32,0,0,0,.44.46Z"/><path class="cls-4" d="M178.89,286.83l-7.36,7.23"/><path class="cls-4" d="M178.69,286.62a79.57,79.57,0,0,0-7.31,7.28.22.22,0,0,0,.3.31,79.51,79.51,0,0,0,7.41-7.17.29.29,0,0,0-.4-.42Z"/><path class="cls-4" d="M172.27,266.47l.71-7.88"/><path class="cls-4" d="M172.53,266.55a53.69,53.69,0,0,0,.94-7.94c.06-.62-.92-.66-1,0a53.21,53.21,0,0,0-.49,7.89c0,.28.44.4.52.09Z"/><path class="cls-4" d="M173.54,259.9l5.35,6.66,1.3-8"/><path class="cls-4" d="M173.34,260c1.57,2.36,3.45,4.54,5.21,6.76a.42.42,0,0,0,.75-.16c.46-2.61,1.31-5.43,1.23-8.09a.35.35,0,0,0-.65-.12c-.92,2.5-1,5.43-1.39,8.06l.75-.16c-1.81-2.22-3.54-4.55-5.54-6.61-.2-.2-.51.1-.36.32Z"/><path class="cls-4" d="M181.5,305.3l-3.79.45c-1.56.18-1.5,2.66-.27,3.61s2.94,1.06,4.32,1.8,2.28,2.84,1,3.74l-7.23,1.49"/><path class="cls-4" d="M181.47,305c-1.35.1-4-.15-4.93,1.06a2.71,2.71,0,0,0,0,2.85c.9,1.6,3,1.71,4.46,2.37,1.19.53,2.93,1.89,1,3.44a6.1,6.1,0,0,1-2,.41l-4.42.9c-.5.1-.45.91.06.8l4-.83a13.91,13.91,0,0,0,3.32-.69,2,2,0,0,0,.8-2.19,3.91,3.91,0,0,0-2.7-2.68c-1.27-.48-2.87-.63-3.65-1.84-1.65-2.58,2.89-2.71,4.16-2.91a.35.35,0,0,0-.05-.69Z"/><path class="cls-4" d="M200.2,281.58l.69,7.88"/><path class="cls-4" d="M199.91,281.62c.07,1.42.18,2.84.3,4.25a14.59,14.59,0,0,0,.48,3.68.22.22,0,0,0,.42,0,14.7,14.7,0,0,0-.17-3.71c-.13-1.41-.26-2.83-.45-4.24a.29.29,0,0,0-.58.06Z"/><path class="cls-4" d="M199.63,281.71l5.35,0"/><path class="cls-4" d="M199.64,282c1,0,1.92,0,2.88,0a8.71,8.71,0,0,0,2.52-.17.2.2,0,0,0,0-.38,8.79,8.79,0,0,0-2.52-.14c-1,0-1.92,0-2.88.07a.29.29,0,0,0,0,.57Z"/><path class="cls-4" d="M201,286l5.34-.19"/><path class="cls-4" d="M200.95,286.23a26.79,26.79,0,0,0,5.38-.29.13.13,0,0,0,0-.26,26.64,26.64,0,0,0-5.34.1c-.29,0-.32.46,0,.46Z"/><path class="cls-4" d="M199.63,293.4l8-2"/><path class="cls-4" d="M199.72,293.65c2.61-.59,5.56-.93,8-2a.24.24,0,0,0-.1-.47c-2.7.19-5.49,1.26-8.1,2-.34.09-.15.58.18.51Z"/><path class="cls-4" d="M200.45,294.07l.62-9.86"/><path class="cls-4" d="M200.81,294.09a46.12,46.12,0,0,0,.52-9.93.26.26,0,0,0-.5,0,46.15,46.15,0,0,0-.73,9.92.36.36,0,0,0,.72,0Z"/><path class="cls-4" d="M149.65,282.13l4.06,7.74,6.45-7.64"/><path class="cls-4" d="M149.35,282.25c1.29,2.61,2.65,5.18,4,7.77a.41.41,0,0,0,.69.1c2.13-2.5,4.6-4.94,6.38-7.7.17-.27-.15-.71-.43-.45-2.45,2.24-4.45,5.1-6.58,7.64l.69.1c-1.37-2.57-2.73-5.16-4.14-7.71-.19-.35-.77-.14-.59.24Z"/><path class="cls-4" d="M154.81,282.23l4.77,7.39,4.77-6.61"/><path class="cls-4" d="M154.56,282.38c1.45,2.55,3.15,4.94,4.66,7.45a.41.41,0,0,0,.7,0,47.14,47.14,0,0,0,4.65-6.68.27.27,0,0,0-.42-.32,47.47,47.47,0,0,0-4.94,6.59h.7c-1.66-2.42-3.14-5-4.87-7.33a.29.29,0,0,0-.5.29Z"/><path class="cls-4" d="M260.19,267.78h32.47"/><path class="cls-4" d="M260.1,268.12c10.42,1.46,22.1.92,32.56,0a.38.38,0,0,0,0-.75c-10.47-.88-22.15-1.43-32.57,0a.35.35,0,0,0,0,.68Z"/><path class="cls-4" d="M257.76,287.49H274"/><path class="cls-4" d="M257.75,288c5.4,0,10.85.14,16.24-.15a.37.37,0,0,0,0-.73c-5.39-.29-10.84-.12-16.24-.15a.52.52,0,0,0,0,1Z"/><path class="cls-4" d="M246.39,298h12.18"/><path class="cls-4" d="M246.39,298.66c4.09.37,8.28.76,12.34-.08a.61.61,0,0,0,0-1.18c-4.06-.83-8.25-.44-12.33-.08a.66.66,0,0,0,0,1.33Z"/><path class="cls-4" d="M222.85,259.9h83.62"/><path class="cls-4" d="M222.71,260.4c6.55,1,13.42.57,20,.58l20.91,0c14.26,0,28.59.38,42.81-.73a.38.38,0,0,0,0-.75c-14.22-1.11-28.55-.75-42.8-.73l-20.91,0c-6.62,0-13.5-.47-20.05.58a.52.52,0,0,0,0,1Z"/><path class="cls-4" d="M224.47,267.12h26.79"/><path class="cls-4" d="M224.47,267.58c4.77.47,9.56.39,14.35.41,4.16,0,8.49.47,12.58-.35a.54.54,0,0,0,0-1c-4.09-.81-8.42-.37-12.57-.35-4.79,0-9.58-.06-14.36.41a.45.45,0,0,0,0,.91Z"/><path class="cls-4" d="M226.91,277.63H287.8"/><path class="cls-4" d="M226.91,278c10.09.85,20.32.46,30.44.48s20.47.82,30.45-.34a.54.54,0,0,0,0-1.08c-10-1.16-20.41-.35-30.44-.34s-20.35-.37-30.45.48a.4.4,0,0,0,0,.8Z"/><path class="cls-4" d="M229.34,288.14h21.92"/><path class="cls-4" d="M229.34,288.64a120.12,120.12,0,0,0,21.92-.13.37.37,0,0,0,0-.73,120.06,120.06,0,0,0-21.92-.13.49.49,0,0,0,0,1Z"/><path class="cls-4" d="M230.16,297.34h9.74"/><path class="cls-4" d="M230.15,297.87c1.87.1,3.74.16,5.62.2a10.47,10.47,0,0,0,4.35-.34.45.45,0,0,0,0-.77,10.43,10.43,0,0,0-4.34-.34c-1.88,0-3.75.1-5.62.2a.53.53,0,0,0,0,1.06Z"/><path class="cls-4" d="M231.78,306.54H244"/><path class="cls-4" d="M231.77,307.13A65.25,65.25,0,0,0,244,307a.46.46,0,0,0,0-.92,65.24,65.24,0,0,0-12.18-.13.59.59,0,0,0,0,1.19Z"/><path class="cls-4" d="M230.16,318.36H235"/><path class="cls-4" d="M230.15,319c1,.07,2,.27,3,.31.84,0,1.71.15,2.32-.52a.64.64,0,0,0,0-.88c-.61-.66-1.48-.54-2.31-.51-1,0-2,.24-3,.31a.65.65,0,0,0,0,1.3Z"/><path class="cls-4" d="M99.13,267.78H66.66"/><path class="cls-4" d="M99.23,267.44c-10.42-1.46-22.1-.92-32.56,0a.38.38,0,0,0,0,.75c10.47.88,22.15,1.43,32.57,0a.35.35,0,0,0,0-.68Z"/><path class="cls-4" d="M101.57,287.49H85.33"/><path class="cls-4" d="M101.57,287c-5.4,0-10.85-.14-16.24.15a.37.37,0,0,0,0,.73c5.39.29,10.84.12,16.24.15a.52.52,0,0,0,0-1Z"/><path class="cls-4" d="M112.94,298H100.76"/><path class="cls-4" d="M112.94,297.33c-4.09-.37-8.28-.76-12.34.08a.61.61,0,0,0,0,1.18c4.06.83,8.25.44,12.33.08a.66.66,0,0,0,0-1.33Z"/><path class="cls-4" d="M136.48,259.9H52.86"/><path class="cls-4" d="M136.62,259.4c-6.55-1-13.42-.57-20-.58l-20.91,0c-14.26,0-28.59-.38-42.81.73a.38.38,0,0,0,0,.75c14.22,1.11,28.55.75,42.8.73l20.91,0c6.62,0,13.5.47,20.05-.58a.52.52,0,0,0,0-1Z"/><path class="cls-4" d="M134.86,267.12H108.06"/><path class="cls-4" d="M134.86,266.67c-4.77-.47-9.56-.39-14.35-.41-4.16,0-8.49-.47-12.58.35a.54.54,0,0,0,0,1c4.09.81,8.42.37,12.57.35,4.79,0,9.58.06,14.36-.41a.45.45,0,0,0,0-.91Z"/><path class="cls-4" d="M132.42,277.63H71.53"/><path class="cls-4" d="M132.42,277.24c-10.09-.85-20.32-.46-30.44-.48s-20.47-.82-30.45.34a.54.54,0,0,0,0,1.08c10,1.16,20.41.35,30.44.34s20.35.37,30.45-.48a.4.4,0,0,0,0-.8Z"/><path class="cls-4" d="M130,288.14H108.06"/><path class="cls-4" d="M130,287.65a120.12,120.12,0,0,0-21.92.13.37.37,0,0,0,0,.73,120.06,120.06,0,0,0,21.92.13.49.49,0,0,0,0-1Z"/><path class="cls-4" d="M129.17,297.34h-9.74"/><path class="cls-4" d="M129.18,296.81c-1.87-.1-3.74-.16-5.62-.2a10.47,10.47,0,0,0-4.35.34.45.45,0,0,0,0,.77,10.43,10.43,0,0,0,4.34.34c1.88,0,3.75-.1,5.62-.2a.53.53,0,0,0,0-1.06Z"/><path class="cls-4" d="M127.55,306.54H115.37"/><path class="cls-4" d="M127.55,305.94a65.25,65.25,0,0,0-12.18.13.46.46,0,0,0,0,.92,65.24,65.24,0,0,0,12.18.13.59.59,0,0,0,0-1.19Z"/><path class="cls-4" d="M129.17,318.36H124.3"/><path class="cls-4" d="M129.18,317.71c-1-.07-2-.27-3-.31-.84,0-1.71-.15-2.32.52a.64.64,0,0,0,0,.88c.61.66,1.48.54,2.31.51,1,0,2-.24,3-.31a.65.65,0,0,0,0-1.3Z"/><text class="cls-6" transform="matrix(0.69, -0.83, 0.77, 0.64, 44.98, 85.4)">O</text><text class="cls-6" transform="matrix(0.78, -0.75, 0.7, 0.72, 57.1, 70.79)">U</text><text class="cls-6" transform="matrix(0.85, -0.67, 0.62, 0.79, 69.31, 58.91)">R</text><text class="cls-6" transform="matrix(0.9, -0.6, 0.55, 0.83, 82.91, 48.38)"> </text><text class="cls-6" transform="matrix(0.95, -0.53, 0.48, 0.87, 90.92, 42.89)">A</text><text class="cls-6" transform="matrix(1, -0.42, 0.39, 0.92, 105.36, 34.82)">D</text><text class="cls-6" transform="matrix(1.04, -0.31, 0.29, 0.96, 121.73, 27.79)">V</text><text class="cls-6" transform="matrix(1.06, -0.2, 0.19, 0.98, 140.07, 22.39)">E</text><text class="cls-6" transform="matrix(1.08, -0.09, 0.09, 1, 154.67, 19.47)">N</text><text class="cls-6" transform="matrix(1.08, 0.02, -0.02, 1, 173.83, 17.82)">T</text><text class="cls-6" transform="matrix(1.07, 0.13, -0.12, 0.99, 191.35, 18.17)">U</text><text class="cls-6" transform="matrix(1.06, 0.24, -0.22, 0.97, 208.23, 20.22)">R</text><text class="cls-6" transform="matrix(1.03, 0.34, -0.32, 0.95, 224.94, 24.08)">E</text><text class="cls-6" transform="matrix(1, 0.42, -0.39, 0.92, 239.13, 28.9)"> </text><text class="cls-6" transform="matrix(0.97, 0.49, -0.45, 0.89, 248.15, 32.56)">B</text><text class="cls-6" transform="matrix(0.92, 0.57, -0.53, 0.85, 261.11, 39.11)">E</text><text class="cls-6" transform="matrix(0.86, 0.66, -0.61, 0.79, 273.79, 46.93)">G</text><text class="cls-6" transform="matrix(0.8, 0.73, -0.67, 0.74, 287.65, 57.82)">I</text><text class="cls-6" transform="matrix(0.73, 0.8, -0.73, 0.68, 294.65, 63.87)">N</text><text class="cls-6" transform="matrix(0.65, 0.86, -0.8, 0.6, 307.6, 78.09)">S</text><g id="_05" data-name="05"><path class="cls-1" d="M184.84,167.44a.14.14,0,0,0,0-.27c-2.78,0-9.89-.3-12.57-.94a1.08,1.08,0,0,0,0-.26,1.14,1.14,0,0,0-2.17-.32l-.85-.27a2,2,0,0,1,.81-1l-.39-.21c-.44-.21-1.51-.75-3-1.69a6.19,6.19,0,0,1-3.13-4.2,3.7,3.7,0,0,1,.12-1.5,2.12,2.12,0,0,1,1.69-1.5,1.34,1.34,0,0,1,1.46,1.06,1,1,0,0,1-.86,1.09c-.78.07-1-.91-.4-.91.35,0,.35.33.16.47a.4.4,0,0,0,.33-.66.68.68,0,0,0-1.14.59,1,1,0,0,0,1.1.79,1.29,1.29,0,0,0,1.1-1.4,1.63,1.63,0,0,0-1.78-1.3,2.38,2.38,0,0,0-1.93,1.69,4.09,4.09,0,0,0-.13,1.61,6.48,6.48,0,0,0,3.27,4.41c1.53.94,2.62,1.49,3.06,1.7a2.32,2.32,0,0,0-.58.86l-.6-.21c-3.37-1.25-7-3-9.37-6.27-2-2.67-3.53-6-2.52-9.25.6-1.95,1.93-3.65,3.76-3.85a2.89,2.89,0,0,1,3.38,2.26,1.94,1.94,0,0,1-1.34,2.13,1.81,1.81,0,0,1-1.85-.35,1.13,1.13,0,0,1-.31-1,.85.85,0,0,1,.79-.78c.52-.08,1,.53.43.81a.65.65,0,0,1-.64-.07c0,.25.36.39.44.41a.75.75,0,0,0,.48-.05.69.69,0,0,0,.4-.71.92.92,0,0,0-1.08-.73,1.27,1.27,0,0,0-1.11,1.07,1.42,1.42,0,0,0,.39,1.24,2,2,0,0,0,2.16.41,2.24,2.24,0,0,0,1.52-2.44,3.18,3.18,0,0,0-3.7-2.51c-2,.22-3.39,2.06-4,4-1,3.39.52,6.76,2.56,9.49,2.46,3.3,6.1,5.12,9.5,6.36l.62.22a1.77,1.77,0,0,0-.08.85c-3.57,0-7.87-1.83-12-3.61-1-.44-2.06-.88-3-1.28a17,17,0,0,0-7.86-1,9.16,9.16,0,0,0-6.49,3.2,4.1,4.1,0,0,0-.44,4.11,2.9,2.9,0,0,0,3.11,1.71l.19,0A2.24,2.24,0,0,0,144.1,167a1.89,1.89,0,0,0-1.06-1.49,1.73,1.73,0,0,0-1-.18,1.81,1.81,0,0,0-1.3.8,1.21,1.21,0,0,0-.09,1.09,1.14,1.14,0,0,0,1.22.65.93.93,0,0,0,.89-.94.5.5,0,0,0-.71-.35c.66.67-.61,1.18-.88.47-.36-1,.84-1.77,1.76-1.3a1.64,1.64,0,0,1,.9,1.29,2,2,0,0,1-1.6,2.17l-.17,0a2.61,2.61,0,0,1-2.81-1.55,3.43,3.43,0,0,1-.31-1.1,3.85,3.85,0,0,1,.71-2.74,8.86,8.86,0,0,1,6.29-3.08,16.87,16.87,0,0,1,7.72,1l3,1.27c4.2,1.8,8.63,3.71,12.33,3.64.16,0,.15,0,.15,0a1.64,1.64,0,0,1,0-1l.85.27a1.33,1.33,0,0,0,0,.32,1.14,1.14,0,0,0,2.19.28,34.65,34.65,0,0,0,6.25.78ZM172,166.17a1,1,0,0,1-.08.27.9.9,0,0,1-1.7-.25,1,1,0,0,1,0-.22,1.28,1.28,0,0,1,.09-.27.92.92,0,0,1,.7-.47.89.89,0,0,1,1,.76A1.18,1.18,0,0,1,172,166.17Z"/><path class="cls-1" d="M155.12,164.46a16,16,0,0,1,6,.69,12.37,12.37,0,0,0-6.06-1c-1.88.21-3.52,1-4,2.64a2,2,0,0,0,.1,1.37,1.51,1.51,0,0,0,2,.72,1,1,0,0,0,.58-1.05A1,1,0,0,0,153,167a.83.83,0,0,0-.46.07.69.69,0,0,0-.41.65.54.54,0,0,0,.21.36c.29.22.8.09.75-.32,0-.13-.21-.22-.33-.21.11.31-.31.29-.33.09s.28-.42.53-.37a.66.66,0,0,1,.57.6.74.74,0,0,1-.43.77,1.22,1.22,0,0,1-1.62-.58,1.81,1.81,0,0,1-.09-1.19C151.79,165.42,153.28,164.66,155.12,164.46Z"/><path class="cls-1" d="M184.84,167.44a.14.14,0,0,1,0-.27c2.78,0,9.89-.3,12.56-.94a1.08,1.08,0,0,1,0-.26,1.14,1.14,0,0,1,2.17-.32l.85-.27a2,2,0,0,0-.81-1l.39-.21c.44-.21,1.51-.75,3-1.69a6.2,6.2,0,0,0,3.13-4.2,3.7,3.7,0,0,0-.12-1.5,2.12,2.12,0,0,0-1.69-1.5,1.34,1.34,0,0,0-1.46,1.06,1,1,0,0,0,.86,1.09c.78.07,1-.91.4-.91-.35,0-.35.33-.16.47a.4.4,0,0,1-.33-.66.68.68,0,0,1,1.14.59,1,1,0,0,1-1.1.79,1.29,1.29,0,0,1-1.1-1.4,1.63,1.63,0,0,1,1.78-1.3,2.38,2.38,0,0,1,1.93,1.69,4.06,4.06,0,0,1,.13,1.61,6.49,6.49,0,0,1-3.27,4.41c-1.53.94-2.62,1.49-3.07,1.7a2.31,2.31,0,0,1,.58.86l.6-.21c3.37-1.25,7-3,9.37-6.27,2-2.67,3.53-6,2.52-9.25-.6-1.95-1.93-3.65-3.76-3.85a2.89,2.89,0,0,0-3.38,2.26,1.94,1.94,0,0,0,1.35,2.13,1.82,1.82,0,0,0,1.85-.35,1.12,1.12,0,0,0,.31-1,.85.85,0,0,0-.79-.78c-.52-.08-1,.53-.43.81a.65.65,0,0,0,.64-.07c0,.25-.36.39-.44.41a.75.75,0,0,1-.48-.05.69.69,0,0,1-.4-.71.92.92,0,0,1,1.08-.73,1.27,1.27,0,0,1,1.11,1.07,1.42,1.42,0,0,1-.39,1.24,2,2,0,0,1-2.16.41,2.24,2.24,0,0,1-1.52-2.44,3.18,3.18,0,0,1,3.7-2.51c2,.22,3.39,2.06,4,4,1,3.39-.52,6.76-2.56,9.49-2.46,3.3-6.11,5.12-9.5,6.36l-.62.22a1.76,1.76,0,0,1,.08.85c3.57,0,7.87-1.83,12-3.61,1-.44,2.06-.88,3-1.28a17,17,0,0,1,7.85-1,9.16,9.16,0,0,1,6.49,3.2,4,4,0,0,1,.77,2.93,4,4,0,0,1-.33,1.18,2.9,2.9,0,0,1-3.11,1.71l-.19,0a2.24,2.24,0,0,1-1.84-2.47,1.89,1.89,0,0,1,1.07-1.49,1.72,1.72,0,0,1,1-.18,1.81,1.81,0,0,1,1.3.8,1.21,1.21,0,0,1,.09,1.09,1.13,1.13,0,0,1-1.21.65.93.93,0,0,1-.9-.94.5.5,0,0,1,.71-.35c-.66.67.61,1.18.88.47.36-1-.84-1.77-1.76-1.3a1.64,1.64,0,0,0-.9,1.29,2,2,0,0,0,1.6,2.17l.17,0a2.62,2.62,0,0,0,2.81-1.55,3.48,3.48,0,0,0,.31-1.1,3.84,3.84,0,0,0-.71-2.74,8.86,8.86,0,0,0-6.29-3.08,16.88,16.88,0,0,0-7.72,1L213,163c-4.2,1.8-8.63,3.71-12.33,3.64-.16,0-.15,0-.15,0a1.63,1.63,0,0,0,0-1l-.85.27a1.27,1.27,0,0,1,0,.32,1.14,1.14,0,0,1-2.19.28,33,33,0,0,1-6.1.76Zm12.81-1.27a1,1,0,0,0,.08.27.9.9,0,0,0,1.7-.25.93.93,0,0,0,0-.22,1.09,1.09,0,0,0-.09-.27.91.91,0,0,0-.69-.47.89.89,0,0,0-1,.76A1.34,1.34,0,0,0,197.65,166.17Z"/><path class="cls-1" d="M214.55,164.46a16,16,0,0,0-6,.69,12.38,12.38,0,0,1,6.06-1c1.88.21,3.52,1,4,2.64a2,2,0,0,1-.1,1.37,1.51,1.51,0,0,1-2,.72,1,1,0,0,1-.58-1.05,1,1,0,0,1,.82-.84.82.82,0,0,1,.46.07.69.69,0,0,1,.41.65.55.55,0,0,1-.21.36c-.28.22-.8.09-.75-.32,0-.13.21-.22.33-.21-.11.31.31.29.33.09s-.28-.42-.53-.37a.67.67,0,0,0-.58.6.74.74,0,0,0,.43.77,1.22,1.22,0,0,0,1.62-.58,1.82,1.82,0,0,0,.09-1.19C217.88,165.42,216.4,164.66,214.55,164.46Z"/></g><path class="cls-7" d="M201.25,146.35a.71.71,0,0,0,.3-.34.76.76,0,0,0-.5-1.1c-1.64-.25-2.87,1.85-4.05,3.52-3,4.25-7.54,5.24-11.2,1-.09,0-.16.14-.2.36-.09.58.46,1.34,1.29,1.78,1.65,1.35,3.27.47,3.59,2.08a1.08,1.08,0,0,0-.89-.06,2.63,2.63,0,0,0-1.16.9c-1,1.17-1.51.7-2,.19a6.26,6.26,0,0,1-.33,3.74,20.44,20.44,0,0,0-1.16,4,20.65,20.65,0,0,0-1.16-4,6.26,6.26,0,0,1-.33-3.74c-.46.51-1,1-2-.19a2.63,2.63,0,0,0-1.16-.9,1.08,1.08,0,0,0-.89.06c.32-1.61,1.94-.73,3.59-2.08.83-.43,1.38-1.19,1.29-1.78,0-.22-.11-.34-.2-.36-3.65,4.2-8.2,3.21-11.2-1-1.18-1.67-2.42-3.77-4.05-3.52a.76.76,0,0,0-.5,1.1.72.72,0,0,0,.31.34c-.19,1-1.18.37-1-.93a1.85,1.85,0,0,1,.4-1,1.85,1.85,0,0,1,1.77-2.16c1.45-.07,3.08,1.58,4.48,4.07,2.61,4,5.68,6.66,9.53,2.24a2.16,2.16,0,0,1,.8-2.12s-.49-3.88-2.76-4.83c.65-1.09,1.32-.67,1.75-.38A3.54,3.54,0,0,1,184,140a5.87,5.87,0,0,0,.63-3.32c0-1.43.33-1.34.33-1.38s.37,0,.34,1.38a5.88,5.88,0,0,0,.63,3.32,3.5,3.5,0,0,1,.32,1.31c.43-.29,1.1-.71,1.75.38-2.27,1-2.72,4.79-2.76,4.83a2.16,2.16,0,0,1,.8,2.12c3.84,4.41,6.92,1.76,9.53-2.24,1.4-2.49,3-4.14,4.48-4.07a1.85,1.85,0,0,1,1.77,2.16,1.85,1.85,0,0,1,.4,1C202.43,146.73,201.45,147.32,201.25,146.35Z"/><path class="cls-7" d="M182,147.9a1.39,1.39,0,0,1-1.71.34c-1.29-.61-.26-3.32,1.08-2.33-.23.63.06,1.33.41.88a1.73,1.73,0,0,0-1.32-2.53,2.22,2.22,0,0,0-2.44,1.13,3,3,0,0,0,.23,2.85,2.57,2.57,0,0,0,3.05,1.38,3.3,3.3,0,0,0,.45-.17c-.25.63-1.39.85-1.85.75-3.55-.71-4.35-4.51-4.36-4.55-.72-2.7,1.92-5.44,5.54-3.6A4,4,0,0,1,182,147.9Z"/><path class="cls-7" d="M190,150.2c-.46.1-1.6-.13-1.85-.75a3.4,3.4,0,0,0,.44.17,2.57,2.57,0,0,0,3.05-1.38,3,3,0,0,0,.23-2.85,2.21,2.21,0,0,0-2.44-1.13,1.73,1.73,0,0,0-1.32,2.53c.34.45.64-.25.41-.88,1.34-1,2.37,1.72,1.08,2.33a1.39,1.39,0,0,1-1.71-.34,4,4,0,0,1,.92-5.86c3.62-1.84,6.26.9,5.54,3.6C194.38,145.69,193.58,149.49,190,150.2Z"/><path class="cls-7" d="M196.87,143.48c-.68.51-.84,1-1.92,2.82.43-1.65.79-3.51.27-4.34a4.27,4.27,0,0,0,2.35-1.8A6.1,6.1,0,0,0,196.87,143.48Z"/><path class="cls-7" d="M173.08,143.48a6.1,6.1,0,0,0-.7-3.32,4.26,4.26,0,0,0,2.35,1.8c-.52.84-.16,2.69.27,4.34C173.92,144.43,173.75,144,173.08,143.48Z"/><path class="cls-8" d="M336.78,232.2a3.06,3.06,0,0,1-1.67-2.47,4,4,0,0,1,.53-2.77,1.69,1.69,0,0,1,1.91-.8,2,2,0,0,1,1.13,1.82,2.39,2.39,0,0,1-.38,1.5,1.37,1.37,0,0,1-.62.5.67.67,0,0,1-.82-.26,1.37,1.37,0,0,1-.13-1.42.17.17,0,0,1,.23-.06.26.26,0,0,1,.1.22.44.44,0,0,1,0,.14.85.85,0,0,0,.09.69.36.36,0,0,0,.43.16,1.06,1.06,0,0,0,.47-.36,1.71,1.71,0,0,0,.27-1,1.46,1.46,0,0,0-.9-1.36,1.36,1.36,0,0,0-1.47.67,3.2,3.2,0,0,0-.44,2.25,2.52,2.52,0,0,0,1.4,2.08c1.13.44,2.29-.14,3.43-1.73,2.38-3.31,4-9.89,4.59-13.26.26-1.5.5-3.22.74-5.26l0-.13-.09-.06s-.05-.06-.07-.16a1.29,1.29,0,0,1,0-.43.64.64,0,0,1,.12-.19h.11v-.14l.08-.72c.88-7.48,1.88-16,6-21.7.36-.5.69-.93,1-1.3l.12-.14-.12-.14c-.31-.36-.64-.79-1-1.3-4.12-5.74-5.12-14.22-6-21.7l-.1-.87h-.11a.89.89,0,0,1-.12-.21,1.18,1.18,0,0,1,0-.41c0-.1,0-.13.07-.15l.09-.06,0-.13c-.24-2-.48-3.76-.74-5.26-.58-3.37-2.2-10-4.59-13.26-1.14-1.59-2.3-2.18-3.43-1.73a2.56,2.56,0,0,0-1.4,2.08,3.2,3.2,0,0,0,.44,2.25,1.36,1.36,0,0,0,1.47.67,1.46,1.46,0,0,0,.9-1.37,1.75,1.75,0,0,0-.26-1,1.06,1.06,0,0,0-.47-.37.36.36,0,0,0-.43.16.84.84,0,0,0-.09.69.46.46,0,0,1,0,.14.26.26,0,0,1-.1.22.17.17,0,0,1-.23-.06,1.37,1.37,0,0,1,.13-1.42.67.67,0,0,1,.82-.26,1.37,1.37,0,0,1,.62.5,2.38,2.38,0,0,1,.38,1.5,2,2,0,0,1-1.13,1.82,1.69,1.69,0,0,1-1.91-.8,4,4,0,0,1-.54-2.77,3.06,3.06,0,0,1,1.67-2.47c1.29-.51,2.58.12,3.82,1.85,2.42,3.37,4.09,10.08,4.69,13.52.14.84.29,1.82.45,3.07l.17,1.27.1-1.29a5.7,5.7,0,0,1,.9-2.88,2.15,2.15,0,0,1,1.74-1,2.24,2.24,0,0,1,1.79,1,4.16,4.16,0,0,1,.69,2.35,3.21,3.21,0,0,1-.51,1.85,1.52,1.52,0,0,1-1.84.71,2.17,2.17,0,0,1-1.15-1.65,2.54,2.54,0,0,1,.37-1.9,1,1,0,0,1,.81-.45,1,1,0,0,1,.79.43,1.65,1.65,0,0,1,0,1.76.16.16,0,0,1-.13.08.19.19,0,0,1-.14-.09.32.32,0,0,1,0-.37.88.88,0,0,0,.07-.79.71.71,0,0,0-.51-.49.65.65,0,0,0-.66.31,1.8,1.8,0,0,0-.28,1.25,1.65,1.65,0,0,0,1,1.45,1.25,1.25,0,0,0,1.36-.58,2.51,2.51,0,0,0,.41-1.46,3.51,3.51,0,0,0-.59-2,1.93,1.93,0,0,0-1.55-.91,1.81,1.81,0,0,0-1.46.86,6.64,6.64,0,0,0-.7,4.62v.11l.08,0a.2.2,0,0,1,.1.15,1.09,1.09,0,0,1,0,.35h0v0a.32.32,0,0,1,0,.15l-.05.07,0,.1a20,20,0,0,0,1.66,4.94,11.39,11.39,0,0,0,3.11,4.08c1.68,1.37,3.46,1.73,4.77,1l.06,0,0-.08a.23.23,0,0,1,0-.11.46.46,0,0,1,.27-.22.12.12,0,0,1,.08,0l.06,0,.06-.05a3,3,0,0,0,.45-.5,4.16,4.16,0,0,0,.68-2.36,4.59,4.59,0,0,0-.73-2.51,2.1,2.1,0,0,0-1.61-1,1.64,1.64,0,0,0-1.38.76,2.94,2.94,0,0,0-.14,3.13,1.43,1.43,0,0,0,1.09.74,1,1,0,0,0,.86-.44,1.63,1.63,0,0,0,0-1.77.56.56,0,0,0-.45-.28.5.5,0,0,0-.39.23.18.18,0,0,1-.14.09.16.16,0,0,1-.12-.08.33.33,0,0,1,0-.4.83.83,0,0,1,.66-.4.93.93,0,0,1,.73.45,2.38,2.38,0,0,1,0,2.52,1.34,1.34,0,0,1-1.21.6,1.77,1.77,0,0,1-1.37-.93,3.57,3.57,0,0,1-.48-1.8,3.48,3.48,0,0,1,.64-2,2,2,0,0,1,1.69-.92,2.46,2.46,0,0,1,1.89,1.22,5.26,5.26,0,0,1,.83,2.87,4.84,4.84,0,0,1-.79,2.73l-.39.55.52-.24a4.06,4.06,0,0,1,4.69,1.08,10.29,10.29,0,0,1,2.93,6,11.89,11.89,0,0,1-1,6.5c-.13.25-.27.52-.42.78l-.07.12.07.12c.16.27.31.55.43.79a11.87,11.87,0,0,1,1,6.49,10.28,10.28,0,0,1-2.93,6,4.06,4.06,0,0,1-4.69,1.09l-.52-.24.39.55a4.84,4.84,0,0,1,.79,2.73,5.27,5.27,0,0,1-.83,2.87,2.46,2.46,0,0,1-1.89,1.22,2,2,0,0,1-1.69-.92,3.48,3.48,0,0,1-.64-2,3.56,3.56,0,0,1,.48-1.8,1.77,1.77,0,0,1,1.38-.93,1.35,1.35,0,0,1,1.21.6,2.39,2.39,0,0,1,0,2.52.93.93,0,0,1-.73.45.83.83,0,0,1-.66-.39.33.33,0,0,1,0-.39A.17.17,0,0,1,355,205a.17.17,0,0,1,.14.09.5.5,0,0,0,.39.23.56.56,0,0,0,.45-.28,1.63,1.63,0,0,0,0-1.77,1,1,0,0,0-.86-.44,1.42,1.42,0,0,0-1.09.74,2.94,2.94,0,0,0,.14,3.13,1.63,1.63,0,0,0,1.38.76,2.1,2.1,0,0,0,1.61-1,4.59,4.59,0,0,0,.73-2.51,4.17,4.17,0,0,0-.68-2.36,3.17,3.17,0,0,0-.45-.5l-.06-.05-.06,0a.12.12,0,0,1-.09,0,.42.42,0,0,1-.25-.19.3.3,0,0,1-.07-.14l0-.08-.06,0c-1.31-.76-3.09-.39-4.77,1a11.38,11.38,0,0,0-3.1,4.08,19.94,19.94,0,0,0-1.66,4.94l0,.1.05.07a.32.32,0,0,1,0,.16c0,.06,0,.08,0,.1a.91.91,0,0,1,0,.26s0,.15-.11.18l-.08,0v.11a6.65,6.65,0,0,0,.7,4.62,1.81,1.81,0,0,0,1.46.85,1.93,1.93,0,0,0,1.55-.91,3.51,3.51,0,0,0,.59-2,2.51,2.51,0,0,0-.41-1.46,1.25,1.25,0,0,0-1.36-.58,1.65,1.65,0,0,0-1,1.45,1.79,1.79,0,0,0,.28,1.25.64.64,0,0,0,.66.3.71.71,0,0,0,.51-.49.89.89,0,0,0-.07-.79.32.32,0,0,1,0-.37.19.19,0,0,1,.14-.09.16.16,0,0,1,.13.08,1.66,1.66,0,0,1,0,1.76,1,1,0,0,1-.79.43,1,1,0,0,1-.81-.45,2.52,2.52,0,0,1-.37-1.91,2.18,2.18,0,0,1,1.15-1.65,1.52,1.52,0,0,1,1.84.71,3.2,3.2,0,0,1,.51,1.85h0a4.15,4.15,0,0,1-.69,2.34,2.24,2.24,0,0,1-1.79,1,2.15,2.15,0,0,1-1.74-1,5.72,5.72,0,0,1-.9-2.88l-.1-1.29-.17,1.27c-.16,1.24-.3,2.21-.45,3.07-.6,3.43-2.27,10.15-4.69,13.52C339.36,232.08,338.07,232.7,336.78,232.2Zm14.43-60.43a12.38,12.38,0,0,1-3.21-4.23,21,21,0,0,1-1.4-3.76l-.26.1c1,8.29,2.1,15.57,5.81,20.75a16.89,16.89,0,0,0,1.09,1.37l.08.09.08-.09c.3-.32.65-.65,1.06-1a6.78,6.78,0,0,1,2.58-1.41l.47-.13-.45-.23a5.1,5.1,0,0,1-2-2,6.71,6.71,0,0,1-.8-3.28,7.11,7.11,0,0,1,1.22-4.07,5.9,5.9,0,0,1,.39-.48l.47-.52-.59.2C354.45,173.47,352.79,173,351.21,171.77Zm12.38,14.1c.11-.19.23-.4.34-.63a11,11,0,0,0,1.05-4.68,10.39,10.39,0,0,0-.11-1.48,9.77,9.77,0,0,0-2.73-5.54c-1.55-1.53-3.29-1.8-4.89-.76l-.09.06,0,.14.13,0-.13,0a.26.26,0,0,1-.06.12.49.49,0,0,1-.3.21s-.07,0-.07,0l-.07-.08-.08.07a5.67,5.67,0,0,0-.81.91,6.38,6.38,0,0,0-1.09,3.65,6.31,6.31,0,0,0,.71,3A3.94,3.94,0,0,0,358,183l.12,0,0-.17a.17.17,0,0,1,0-.07.35.35,0,0,1,.28-.13.26.26,0,0,1,.23.09s0,.05,0,.06V183h.15a2.74,2.74,0,0,0,1.77-1.22,4.38,4.38,0,0,0,.74-2.48,4,4,0,0,0-.69-2.32c-.71-1-1.87-1.39-2.63-.34a2.72,2.72,0,0,0-.4,1.41,2.06,2.06,0,0,0,.36,1.19,2.39,2.39,0,0,0,.35.38l0,0a.35.35,0,0,1,0,.37.15.15,0,0,1-.23,0,2.59,2.59,0,0,1-.41-.46,2.7,2.7,0,0,1-.48-1.59,3.2,3.2,0,0,1,.52-1.77c.92-1.28,2.34-.83,3.18.34a4.67,4.67,0,0,1,.8,2.7,5.1,5.1,0,0,1-.85,2.86,3.23,3.23,0,0,1-1,1l-.43.25.46.11a6.33,6.33,0,0,1,3.5,2.37l.11.14Zm-.36.57-.1-.13a5.82,5.82,0,0,0-4.26-2.38h-.13v.17l0,0a.36.36,0,0,1-.28.14.28.28,0,0,1-.23-.1.17.17,0,0,1,0-.08l0-.16H358a6.12,6.12,0,0,0-3.34,1.51c-.23.2-.46.42-.67.64l-.37.36.33.33c.23.23.46.46.71.67A6.2,6.2,0,0,0,358,189h.13v-.18a.13.13,0,0,1,0-.06.29.29,0,0,1,.24-.1.35.35,0,0,1,.28.13.14.14,0,0,1,0,.07l0,.16h.11a5.83,5.83,0,0,0,4.26-2.41Zm-1.09,12.94a9.78,9.78,0,0,0,2.73-5.54,10.45,10.45,0,0,0,.11-1.48,11,11,0,0,0-1.05-4.69c-.1-.22-.21-.41-.34-.63l-.09-.16-.1.14a6.35,6.35,0,0,1-3.5,2.37l-.46.11.43.25a3.2,3.2,0,0,1,1,1,5.1,5.1,0,0,1,.85,2.86,4.66,4.66,0,0,1-.8,2.7c-.84,1.17-2.26,1.62-3.18.33a3.2,3.2,0,0,1-.52-1.77,2.71,2.71,0,0,1,.48-1.59,2.61,2.61,0,0,1,.41-.46.15.15,0,0,1,.23,0,.35.35,0,0,1,0,.37l0,0a2.41,2.41,0,0,0-.35.38,2.07,2.07,0,0,0-.36,1.2,2.71,2.71,0,0,0,.4,1.4c.76,1.06,1.92.62,2.63-.33a4,4,0,0,0,.69-2.32,4.38,4.38,0,0,0-.74-2.48,2.73,2.73,0,0,0-1.77-1.21l-.16,0v.23s0,0,0,.06a.26.26,0,0,1-.23.09.35.35,0,0,1-.28-.13.18.18,0,0,1,0-.07l0-.17-.12,0a4,4,0,0,0-2.58,2.15,6.31,6.31,0,0,0-.71,3,6.38,6.38,0,0,0,1.09,3.65,5.69,5.69,0,0,0,.81.92l.08.07.07-.09a.08.08,0,0,1,.07,0,.49.49,0,0,1,.3.21.25.25,0,0,1,.06.12l0,.14.09.07C358.86,201.18,360.6,200.91,362.15,199.38Zm-14.15,6a12.35,12.35,0,0,1,3.21-4.23c1.57-1.24,3.24-1.7,4.56-1.25l.59.2-.47-.52a5.66,5.66,0,0,1-.39-.48,7.1,7.1,0,0,1-1.22-4.07,6.7,6.7,0,0,1,.81-3.28,5.1,5.1,0,0,1,2-2l.45-.23-.47-.13a6.8,6.8,0,0,1-2.58-1.41c-.41-.36-.76-.69-1.06-1l-.08-.09-.08.09a16.7,16.7,0,0,0-1.09,1.37c-3.71,5.18-4.83,12.46-5.81,20.75l.26.09A21,21,0,0,1,348,205.36Z"/><path class="cls-8" d="M30,232.28a3.12,3.12,0,0,0,1.67-2.52,4.12,4.12,0,0,0-.53-2.82,1.67,1.67,0,0,0-1.91-.81A2.06,2.06,0,0,0,28.12,228a2.48,2.48,0,0,0,.38,1.53,1.38,1.38,0,0,0,.62.51.66.66,0,0,0,.82-.26,1.42,1.42,0,0,0,.13-1.45.17.17,0,0,0-.23-.06.27.27,0,0,0-.1.23.46.46,0,0,0,0,.14.88.88,0,0,1-.09.71.36.36,0,0,1-.43.16,1.06,1.06,0,0,1-.47-.37,1.77,1.77,0,0,1-.27-1.07,1.49,1.49,0,0,1,.9-1.39,1.35,1.35,0,0,1,1.47.69,3.32,3.32,0,0,1,.44,2.29,2.57,2.57,0,0,1-1.4,2.12c-1.13.45-2.29-.14-3.43-1.77-2.38-3.38-4-10.1-4.59-13.53-.26-1.53-.5-3.28-.74-5.37l0-.14.09-.06s.05-.06.07-.16a1.34,1.34,0,0,0,0-.44.66.66,0,0,0-.12-.19H21v-.15l-.08-.74c-.88-7.63-1.88-16.28-6-22.14-.36-.51-.69-.95-1-1.32l-.12-.15.12-.15c.31-.37.64-.8,1-1.32,4.12-5.86,5.12-14.51,6-22.14l.1-.89h.11a.91.91,0,0,0,.12-.22,1.22,1.22,0,0,0,0-.41c0-.1,0-.13-.07-.15l-.09-.06,0-.14c.24-2.08.48-3.84.74-5.37.58-3.44,2.2-10.15,4.59-13.53,1.14-1.63,2.3-2.22,3.43-1.77a2.62,2.62,0,0,1,1.4,2.12,3.33,3.33,0,0,1-.44,2.3,1.35,1.35,0,0,1-1.47.69,1.49,1.49,0,0,1-.9-1.39,1.81,1.81,0,0,1,.26-1.06,1.06,1.06,0,0,1,.47-.38.35.35,0,0,1,.43.16.87.87,0,0,1,.09.71.48.48,0,0,0,0,.14.27.27,0,0,0,.1.23.17.17,0,0,0,.23-.06,1.42,1.42,0,0,0-.13-1.45.66.66,0,0,0-.82-.26,1.38,1.38,0,0,0-.62.51,2.46,2.46,0,0,0-.38,1.53,2.06,2.06,0,0,0,1.13,1.86,1.67,1.67,0,0,0,1.91-.81,4.09,4.09,0,0,0,.54-2.83A3.12,3.12,0,0,0,30,138.92c-1.29-.52-2.58.12-3.82,1.89-2.42,3.44-4.09,10.29-4.69,13.8-.14.86-.29,1.85-.45,3.13l-.17,1.3-.1-1.31a5.9,5.9,0,0,0-.9-2.94,2.14,2.14,0,0,0-1.74-1,2.23,2.23,0,0,0-1.79,1.05,4.31,4.31,0,0,0-.69,2.39,3.33,3.33,0,0,0,.51,1.89,1.51,1.51,0,0,0,1.84.72,2.22,2.22,0,0,0,1.15-1.69,2.63,2.63,0,0,0-.37-1.94,1,1,0,0,0-.81-.46,1,1,0,0,0-.79.44,1.72,1.72,0,0,0,0,1.8.16.16,0,0,0,.13.08.19.19,0,0,0,.14-.09.33.33,0,0,0,0-.38.91.91,0,0,1-.07-.81.72.72,0,0,1,.51-.5.64.64,0,0,1,.66.31,1.87,1.87,0,0,1,.28,1.27,1.68,1.68,0,0,1-1,1.47,1.23,1.23,0,0,1-1.36-.59,2.6,2.6,0,0,1-.41-1.49,3.63,3.63,0,0,1,.59-2,1.92,1.92,0,0,1,1.55-.93,1.81,1.81,0,0,1,1.46.87,6.9,6.9,0,0,1,.7,4.72V160l-.08,0a.21.21,0,0,0-.1.15,1.14,1.14,0,0,0,0,.36h0v0a.33.33,0,0,0,0,.16l.05.07,0,.1a20.68,20.68,0,0,1-1.66,5,11.6,11.6,0,0,1-3.11,4.16c-1.68,1.39-3.46,1.77-4.77,1l-.06,0,0-.08a.23.23,0,0,0,0-.11.46.46,0,0,0-.27-.23.12.12,0,0,0-.08,0l-.06,0-.06-.05a3,3,0,0,1-.45-.51,4.31,4.31,0,0,1-.68-2.41,4.75,4.75,0,0,1,.73-2.56,2.1,2.1,0,0,1,1.61-1.07,1.63,1.63,0,0,1,1.38.78,3.06,3.06,0,0,1,.14,3.19,1.43,1.43,0,0,1-1.09.76,1,1,0,0,1-.86-.45,1.69,1.69,0,0,1,0-1.81.56.56,0,0,1,.45-.29.49.49,0,0,1,.39.23.17.17,0,0,0,.14.09.16.16,0,0,0,.12-.08.34.34,0,0,0,0-.4.83.83,0,0,0-.66-.41.92.92,0,0,0-.73.46,2.47,2.47,0,0,0,0,2.57,1.33,1.33,0,0,0,1.21.61,1.77,1.77,0,0,0,1.37-.95,3.7,3.7,0,0,0,.48-1.84,3.6,3.6,0,0,0-.64-2.09,2,2,0,0,0-1.69-.94,2.46,2.46,0,0,0-1.89,1.25,5.45,5.45,0,0,0-.83,2.93,5,5,0,0,0,.79,2.79l.39.56-.52-.25c-1.55-.73-3.22-.34-4.69,1.11a10.58,10.58,0,0,0-2.93,6.1,12.35,12.35,0,0,0,1,6.63c.13.26.27.53.42.79l.07.12-.07.12c-.16.27-.31.56-.43.8a12.33,12.33,0,0,0-1,6.62,10.58,10.58,0,0,0,2.93,6.1c1.47,1.45,3.13,1.84,4.69,1.11l.52-.25-.39.56a5,5,0,0,0-.79,2.79,5.45,5.45,0,0,0,.83,2.93,2.45,2.45,0,0,0,1.89,1.25,2,2,0,0,0,1.69-.94,3.6,3.6,0,0,0,.64-2.09,3.69,3.69,0,0,0-.48-1.84,1.77,1.77,0,0,0-1.38-.95,1.34,1.34,0,0,0-1.21.61,2.48,2.48,0,0,0,0,2.57.92.92,0,0,0,.73.45.82.82,0,0,0,.66-.4.34.34,0,0,0,0-.4.17.17,0,0,0-.13-.09.17.17,0,0,0-.14.09.5.5,0,0,1-.39.23.56.56,0,0,1-.45-.29,1.69,1.69,0,0,1,0-1.81,1,1,0,0,1,.86-.45,1.42,1.42,0,0,1,1.09.75,3.06,3.06,0,0,1-.14,3.2,1.63,1.63,0,0,1-1.38.78A2.09,2.09,0,0,1,9.63,206a4.76,4.76,0,0,1-.73-2.56,4.32,4.32,0,0,1,.68-2.4,3.21,3.21,0,0,1,.45-.51l.06-.05.06,0a.12.12,0,0,0,.09,0,.43.43,0,0,0,.25-.2.31.31,0,0,0,.07-.14l0-.08.06,0c1.31-.77,3.09-.4,4.77,1a11.59,11.59,0,0,1,3.1,4.16,20.64,20.64,0,0,1,1.66,5l0,.1-.05.08a.34.34,0,0,0,0,.16c0,.06,0,.08,0,.1a1,1,0,0,0,0,.27s0,.15.11.19l.08,0v.12a6.9,6.9,0,0,1-.7,4.72,1.81,1.81,0,0,1-1.46.87,1.92,1.92,0,0,1-1.55-.93,3.63,3.63,0,0,1-.59-2,2.6,2.6,0,0,1,.41-1.49,1.24,1.24,0,0,1,1.36-.59,1.68,1.68,0,0,1,1,1.48,1.85,1.85,0,0,1-.28,1.28.63.63,0,0,1-.66.31.72.72,0,0,1-.51-.5.92.92,0,0,1,.07-.81.33.33,0,0,0,0-.38.19.19,0,0,0-.14-.09.16.16,0,0,0-.13.08,1.72,1.72,0,0,0,0,1.8,1,1,0,0,0,.79.44,1,1,0,0,0,.81-.46,2.61,2.61,0,0,0,.37-1.94A2.22,2.22,0,0,0,18,211.37a1.51,1.51,0,0,0-1.84.72,3.32,3.32,0,0,0-.51,1.89h0a4.3,4.3,0,0,0,.69,2.39,2.23,2.23,0,0,0,1.79,1.05,2.14,2.14,0,0,0,1.74-1,5.92,5.92,0,0,0,.9-2.94l.1-1.31.17,1.3c.16,1.26.3,2.26.45,3.13.6,3.5,2.27,10.35,4.69,13.79C27.44,232.16,28.73,232.79,30,232.28ZM15.59,170.62a12.61,12.61,0,0,0,3.21-4.32,21.72,21.72,0,0,0,1.4-3.83l.26.1c-1,8.46-2.1,15.89-5.81,21.17a17.16,17.16,0,0,1-1.09,1.39l-.08.09-.08-.09c-.3-.33-.65-.66-1.06-1a6.75,6.75,0,0,0-2.58-1.44l-.47-.13.45-.23a5.15,5.15,0,0,0,2-2.09,7,7,0,0,0,.8-3.35,7.36,7.36,0,0,0-1.22-4.15,6,6,0,0,0-.39-.49l-.47-.53.59.2C12.35,172.35,14,171.89,15.59,170.62ZM3.21,185c-.11-.2-.23-.4-.34-.64a11.44,11.44,0,0,1-1.05-4.78,10.81,10.81,0,0,1,.11-1.51,10,10,0,0,1,2.73-5.66c1.55-1.56,3.29-1.84,4.89-.78l.09.06,0,.14-.13,0,.13,0a.26.26,0,0,0,.06.13.49.49,0,0,0,.3.22s.07,0,.07,0l.07-.09.08.07a5.75,5.75,0,0,1,.81.93,6.61,6.61,0,0,1,1.09,3.72,6.55,6.55,0,0,1-.71,3.05,4,4,0,0,1-2.58,2.19l-.12,0,0-.17a.18.18,0,0,0,0-.07.35.35,0,0,0-.28-.13.26.26,0,0,0-.23.09s0,.05,0,.06v.22H8a2.74,2.74,0,0,1-1.77-1.24,4.54,4.54,0,0,1-.74-2.53,4.14,4.14,0,0,1,.69-2.37c.71-1,1.87-1.42,2.63-.34a2.82,2.82,0,0,1,.4,1.44,2.13,2.13,0,0,1-.36,1.22,2.42,2.42,0,0,1-.35.39l0,0a.36.36,0,0,0,0,.38.14.14,0,0,0,.23,0,2.63,2.63,0,0,0,.41-.47A2.79,2.79,0,0,0,9.55,177,3.32,3.32,0,0,0,9,175.21c-.92-1.31-2.34-.85-3.18.34a4.83,4.83,0,0,0-.8,2.75,5.28,5.28,0,0,0,.85,2.92,3.26,3.26,0,0,0,1,1l.43.25-.46.11A6.33,6.33,0,0,0,3.4,185l-.11.14Zm.36.58.1-.14A5.79,5.79,0,0,1,7.93,183h.13v.18l0,0a.36.36,0,0,0,.28.14.28.28,0,0,0,.23-.1.17.17,0,0,0,0-.08l0-.16h.12a6.06,6.06,0,0,1,3.34,1.54c.23.2.46.43.67.65l.37.37-.33.34c-.23.23-.46.47-.71.68a6.14,6.14,0,0,1-3.34,1.55H8.65V188a.13.13,0,0,0,0-.06.29.29,0,0,0-.24-.1.35.35,0,0,0-.28.14.14.14,0,0,0,0,.07l0,.16H7.93a5.8,5.8,0,0,1-4.26-2.46Zm1.09,13.2a10.05,10.05,0,0,1-2.73-5.65,10.87,10.87,0,0,1-.11-1.51,11.44,11.44,0,0,1,1.05-4.78c.1-.22.21-.41.34-.64L3.3,186l.1.14a6.35,6.35,0,0,0,3.5,2.42l.46.11-.43.25a3.23,3.23,0,0,0-1,1,5.28,5.28,0,0,0-.85,2.92,4.82,4.82,0,0,0,.8,2.75c.84,1.19,2.26,1.65,3.18.34a3.31,3.31,0,0,0,.52-1.81,2.81,2.81,0,0,0-.48-1.62,2.65,2.65,0,0,0-.41-.47.14.14,0,0,0-.23,0,.36.36,0,0,0,0,.38l0,0a2.44,2.44,0,0,1,.35.39,2.15,2.15,0,0,1,.36,1.22,2.81,2.81,0,0,1-.4,1.43c-.76,1.08-1.92.63-2.63-.33a4.14,4.14,0,0,1-.69-2.37,4.54,4.54,0,0,1,.74-2.53A2.73,2.73,0,0,1,8,189.14l.16,0v.23s0,0,0,.06a.26.26,0,0,0,.23.1.35.35,0,0,0,.28-.13.19.19,0,0,0,0-.07l0-.17.12,0a4,4,0,0,1,2.58,2.19,6.89,6.89,0,0,1-.37,6.77,5.77,5.77,0,0,1-.81.93l-.08.07-.07-.09a.08.08,0,0,0-.07,0,.49.49,0,0,0-.3.22.25.25,0,0,0-.06.13l0,.14-.09.07C7.95,200.63,6.21,200.35,4.66,198.79ZM18.8,204.9a12.57,12.57,0,0,0-3.21-4.32c-1.57-1.27-3.24-1.74-4.56-1.27l-.59.2.47-.53a5.75,5.75,0,0,0,.39-.49,7.35,7.35,0,0,0,1.22-4.15,7,7,0,0,0-.81-3.35,5.15,5.15,0,0,0-2-2.08l-.45-.23.47-.13a6.76,6.76,0,0,0,2.58-1.44c.41-.37.76-.7,1.06-1l.08-.09.08.09a17,17,0,0,1,1.09,1.4c3.71,5.28,4.83,12.71,5.81,21.17l-.26.1A21.7,21.7,0,0,0,18.8,204.9Z"/><path class="cls-4" d="M190,72.58s0-.06,0-.09,0-.17,0-.24a.8.8,0,0,1-.19-.32,2.3,2.3,0,0,0-.07-.41c.06-.14,0-.28,0-.42s.06-.15.07-.23a1.18,1.18,0,0,0,0-.24.7.7,0,0,0,0-.09,2.34,2.34,0,0,1-.1-.36,1.37,1.37,0,0,0-.06-.15l-.07-.2a4.93,4.93,0,0,1-.27-1.09c0-.27,0-.59,0-.88,0-.07,0-.13,0-.2s0-.09,0-.12,0-.1,0-.14c0-.68,0-1.29.07-1.91,0-.34.07-.69.07-1,0-.18,0-.37,0-.55s0-.39,0-.58-.06-.26-.09-.39l-.1-.51a4.92,4.92,0,0,0-.11-.5c-.12-.37-.25-.76-.37-1.11l-.1-.27a2.4,2.4,0,0,1-.1-.27c0-.07,0-.16,0-.24s-.05-.31-.07-.47a6.13,6.13,0,0,1,0-.73c0-.07,0-.13,0-.2s0-.16,0-.24,0-.29,0-.44c0-.45-.05-.92-.06-1.39s-.08-1.19-.13-1.79c0-.31,0-.61,0-.92s0-.64,0-1c0-.48,0-1,0-1.39,0-.14-.06-.27-.07-.41s0-.38,0-.56a4.05,4.05,0,0,1-.06-.53s0-.07.06-.11.12-.22.19-.32a1.41,1.41,0,0,1,.06-.21c0-.05,0-.13.06-.17a1.82,1.82,0,0,1,.11-.29,4.35,4.35,0,0,0,.7.21.7.7,0,0,0,.34-.26,4.08,4.08,0,0,0,0-1c0-.16,0-.31,0-.47,0-.33,0-.66,0-1s0-.68,0-1a8.41,8.41,0,0,0,0-1.12c0-.11,0-.23-.06-.33a7.78,7.78,0,0,1-.1-1.42,8.25,8.25,0,0,1,.11-.91c0-.14.05-.29.07-.44s0-.15,0-.23,0-.15,0-.23c0-.32,0-.62,0-1,0-.07,0-.13,0-.2s0-.15,0-.23.06-.38.09-.55,0-.39.06-.58,0-.15,0-.23c0-.32,0-.66,0-1a9.48,9.48,0,0,0,0-1.42c0-.16,0-.31,0-.47,0-.48-.06-1-.1-1.41,0-.15,0-.31-.06-.45s-.13-.56-.17-.83-.17-.38-.29-.55-.07-.06-.09-.11a3.15,3.15,0,0,1-.43-.3l-.06-.06-.09,0-.06-.06-.09,0-.19-.12,0,0-.12-.08a1,1,0,0,1-.1-.09c0-.09,0-.12,0-.2-.24-.25-.34-.66-.84-.64,0-.11-.08-.23-.11-.35l0-.08.07,0c.13,0,.05-.16.09-.23s.2.17.34.16c0-.17,0-.37-.18-.46.07,0,.18,0,.19-.11-.21-.09-.52-.29-.52-.56s-.1-.41-.19-.58l-.1-.7c0-.48-.45-.75-.52-1.19a2.23,2.23,0,0,0-.74-.65l0,0-.21-.11a1.37,1.37,0,0,0-.9-.22c-.33,0-.75-.06-.93.29l0-.09c-.11,0-.14.14-.24.14-.09.21-.08-.12-.19-.08s-.15.1-.21.21-.14.15-.26.15c0,.22-.24.05-.36.14,0,.1.18.06.26.13s-.13,0-.13.13,0,.08-.06.13,0,.07.07.1v0l-.05.06c-.23.11-.51.16-.64.4l.09,0c-.07.17-.24.31-.24.5s.13-.11.21-.07a2.89,2.89,0,0,0,0,.43c.12,0,.07.19.1.29a.73.73,0,0,0,0,.52c.1.09,0,.3.17.38a.75.75,0,0,0,0,.11.62.62,0,0,0,.15.35.73.73,0,0,0,.18.28l.06.11A3.55,3.55,0,0,1,182,30a1,1,0,0,0-.07.5c0,.06.08.09.11.15s.2,0,.29,0a.55.55,0,0,1,.11.39.46.46,0,0,0,.2.15.41.41,0,0,0,0,.21c.09.12.22.13.29.26a1.3,1.3,0,0,1,.06.23.6.6,0,0,0,.17.3.34.34,0,0,0,.39,0l.11-.06a.67.67,0,0,1,.17-.11.64.64,0,0,1,.4-.11.85.85,0,0,1,.29.15.6.6,0,0,1,.21.24,2.29,2.29,0,0,1-.49.33l-.53.29c-.12.13-.24.27-.34.39a.79.79,0,0,0-.19.27c.05,0,0,0,.07-.06a4.25,4.25,0,0,0,.4-.32c.07,0,.12-.12.17-.09s-.05.14-.09.2a2.67,2.67,0,0,0-.34.55s0,0,0,0h0a.56.56,0,0,0-.16.24,1,1,0,0,0-.21.32,2.68,2.68,0,0,1-.2.47s0,0,0,.08,0,.09,0,0c0-.2.28-.52.09-.73-.13,0-.18.13-.23.23a1,1,0,0,0-.19.27c0,.1,0,.22-.06.33a1.47,1.47,0,0,1,0,.15,1.85,1.85,0,0,0-.09.33,4.12,4.12,0,0,1-.13.59.41.41,0,0,0-.3,0c0,.2.14.29.19.45a.7.7,0,0,1,0,.17,1.3,1.3,0,0,1,.19.38c0,.13,0,.29.09.42s0,.06,0,.09a.74.74,0,0,1,0,.35s0,0-.06-.06S182,38,182,37.89a3,3,0,0,1,0-.36,1.11,1.11,0,0,0-.1-.36.85.85,0,0,0-.06-.08s0-.07,0-.09l0,0a1.51,1.51,0,0,0-.2-.23l-.13-.11a1.53,1.53,0,0,1-.27-.2c0-.05,0-.15-.07-.21s-.06-.13-.1-.2-.07,0-.1-.06-.26-.08-.39-.14a2.93,2.93,0,0,0-.47-.23c-.15-.13-.31-.23-.46-.36s-.21-.2-.31-.3a1.53,1.53,0,0,1-.3-.32,2.32,2.32,0,0,1-.56-.68c0-.17,0-.32,0-.45a.42.42,0,0,1,.2-.18,2.31,2.31,0,0,1,.29-.11,1,1,0,0,1,.2-.06,4,4,0,0,0,.59,0,.52.52,0,0,0,.29-.32,1,1,0,0,0,0-.33c0-.12.13-.18.17-.29a.66.66,0,0,0,0-.21.58.58,0,0,0,.07-.24c0-.06-.07-.12-.06-.21s.25-.15.27-.35-.17-.25-.23-.39a1.24,1.24,0,0,1-.26-.36s0,0,0-.11,0,0,0-.11a.89.89,0,0,0,0-.63l0,0-.08-.18h0l.09,0h-.12l.12,0h0l0,0a.94.94,0,0,0,.22.18l.09,0h.09l-.09,0-.08,0a.82.82,0,0,1-.15-.13.68.68,0,0,0,.22.14l.12,0a.26.26,0,0,0,.12,0l.07-.05.06-.07-.06.06-.07.05a.26.26,0,0,1-.12,0l-.12,0a.7.7,0,0,1-.21-.16l-.06-.07,0,0,0,.05.12.1-.11-.1,0-.05h0l.05-.07,0-.08,0,.08-.06.07h0a2.71,2.71,0,0,1-.23-.33l0-.05h.07l.15.2.1.12-.09-.12-.14-.2h0a1.44,1.44,0,0,0,.24.16l.15.06-.14-.07-.14-.1a1,1,0,0,0,.41.17h.15l-.15,0a.94.94,0,0,1-.41-.2l0,0h0l-.07-.07h0l.09.07.11.07-.11-.08-.08-.07h.11a1.74,1.74,0,0,0,.22.17l.18.09-.17-.1-.16-.14a1.07,1.07,0,0,0,.48.26h.19l-.19,0a1.06,1.06,0,0,1-.48-.29l0,0,.1.07-.09-.08h0l0,0c-.12-.12-.24-.25-.35-.38l-.23-.24-.25-.21a2.74,2.74,0,0,0-.56-.33,2.88,2.88,0,0,1,.45.22,3,3,0,0,1,.41.3c.14.12.27.26.39.38l.12.12-.12-.12c-.12-.13-.24-.26-.38-.39a2.88,2.88,0,0,0-.75-.51,3.1,3.1,0,0,0-.85-.25,3,3,0,0,0-.69,0,2.57,2.57,0,0,0-.68.14,2.47,2.47,0,0,0-.54.21l-.21.17-.15.14a3.65,3.65,0,0,0-.52.45,3,3,0,0,0-1,1.15,6.15,6.15,0,0,1-.94.94.72.72,0,0,1-.19.1s0,0,0,0v0h0a.66.66,0,0,0,.21-.09,3.86,3.86,0,0,0,.66-.51l-.11.24,0,0a3.17,3.17,0,0,1-.48.43l-.16.09.17-.08a2.87,2.87,0,0,0,.42-.32l0,0-.13.29a1.17,1.17,0,0,1-.55.32.33.33,0,0,1-.2,0,.34.34,0,0,0,.21,0,1.07,1.07,0,0,0,.49-.22l-.07.16a1.32,1.32,0,0,1-.44.2.5.5,0,0,1-.44-.19,1.12,1.12,0,0,1-.2-.39,2.76,2.76,0,0,1-.07-.27,2.65,2.65,0,0,0,0,.28,1.16,1.16,0,0,0,.18.42.56.56,0,0,0,.3.22.75.75,0,0,1-.56-.09.73.73,0,0,1-.27-.45.37.37,0,0,1,0-.13.3.3,0,0,0,0,.13.78.78,0,0,0,.25.5.72.72,0,0,0,.57.15.61.61,0,0,0,.25,0l.16,0a2,2,0,0,1-.48.12.81.81,0,0,1-.65-.17.92.92,0,0,1-.15-.17.89.89,0,0,0,.14.18.84.84,0,0,0,.66.21,2.11,2.11,0,0,0,.53-.11l0,.08a1.58,1.58,0,0,1-1,.08,1,1,0,0,1-.56-.57,1,1,0,0,1-.08-.27,1,1,0,0,0,.06.28,1.07,1.07,0,0,0,.55.62,1.17,1.17,0,0,0,.46.08l-.11,0a1,1,0,0,1-1-.71,1,1,0,0,1-.08-.54A.52.52,0,0,1,172,30a.9.9,0,0,1,.38,0,.89.89,0,0,0-.38,0,.56.56,0,0,0-.47.46,1.08,1.08,0,0,0,.05.57,1.23,1.23,0,0,0,.72.76h-.06a1.35,1.35,0,0,1-.82-1,1.28,1.28,0,0,0,.09.35,1.34,1.34,0,0,0,.65.71,1.41,1.41,0,0,1-.31,0l-.13-.11a1.55,1.55,0,0,1-.26-.29,1.52,1.52,0,0,0,.24.3l.1.09-.14,0a.17.17,0,0,1-.06-.06.16.16,0,0,0,.06.07.52.52,0,0,0,.2.07,1.26,1.26,0,0,0,.29.15h0a1.58,1.58,0,0,0,.32.07l-.11,0a1.8,1.8,0,0,1-.72,0,.67.67,0,0,1-.22-.08.65.65,0,0,0,.22.1,1.85,1.85,0,0,0,.73,0l.34-.07h.1a2.43,2.43,0,0,1-1.22.17.7.7,0,0,1-.56-.68,1.79,1.79,0,0,1,0-.31,1.73,1.73,0,0,0,0,.31.75.75,0,0,0,.56.74,1.53,1.53,0,0,0,.35,0l-.05,0-.27,0a.88.88,0,0,1-.3-.11.88.88,0,0,0,.29.12l.25,0a.61.61,0,0,0-.16.46,1,1,0,0,0,0,.19h-.07L171.6,33l.05.11-.2,0a1.61,1.61,0,0,1-.26-.1,1.53,1.53,0,0,0,.25.11l.22.05a1.71,1.71,0,0,0,.39.54H172l-.13-.13a1.26,1.26,0,0,1-.19-.3,1.24,1.24,0,0,0,.18.31l.11.12h0l.13.11a1.62,1.62,0,0,1-.65-.15l-.06-.1a.44.44,0,0,1,0-.14.36.36,0,0,0,0,.16l0,.07,0,0-.22-.14.22.15.06,0a.89.89,0,0,0,.4.38.55.55,0,0,0,.37,0h0l.12.06h-.15l-.08,0a.15.15,0,0,0,.07,0,.42.42,0,0,0,.16,0,.85.85,0,0,1-.66,0l-.18-.1a2.16,2.16,0,0,1-.05-.23c0,.09,0,.14,0,.22l0,0,0,0,0,.08a.64.64,0,0,0,.1.23,1.24,1.24,0,0,1-.52-.38,1.19,1.19,0,0,1-.18-.28,1.22,1.22,0,0,0,.16.29,1.27,1.27,0,0,0,.6.45l.13.11a1.35,1.35,0,0,1-.87-.5,1.17,1.17,0,0,1-.26-.59.66.66,0,0,1,.34-.67,1.07,1.07,0,0,1,.44-.11,1.06,1.06,0,0,0-.45.09.7.7,0,0,0-.39.7,1.27,1.27,0,0,0,.25.63,1.4,1.4,0,0,0,1.07.6l0,0h0a1.46,1.46,0,0,1-1-.53,1.5,1.5,0,0,1-.23-.35,1.5,1.5,0,0,0,.22.36,1.53,1.53,0,0,0,1,.57,1.71,1.71,0,0,1-.35.11l-.19-.08a1.77,1.77,0,0,1-.39-.24,1.75,1.75,0,0,0,.38.26l.15.07a.54.54,0,0,1-.18,0,.21.21,0,0,1-.09,0,.19.19,0,0,0,.09.06.62.62,0,0,0,.25,0,1.49,1.49,0,0,0,.38.07h0l-.25.09.26-.08.07,0a1.78,1.78,0,0,0,.38,0l-.12.08a2.2,2.2,0,0,1-.81.3.74.74,0,0,1-.28,0,.74.74,0,0,0,.28,0,1.75,1.75,0,0,0,.52-.12l0,0a.53.53,0,0,0-.11.12,2.1,2.1,0,0,1-.41.1.8.8,0,0,1-.86-.57,2.06,2.06,0,0,1-.09-.35,2,2,0,0,0,.07.36.85.85,0,0,0,.88.64,1.86,1.86,0,0,0,.35-.06l0,.07-.28.06a1,1,0,0,1-.37,0,1,1,0,0,0,.37,0l.27,0a.69.69,0,0,0,0,.45,1.11,1.11,0,0,0,.18.31,1.88,1.88,0,0,1-.44.08,1.92,1.92,0,0,1-.33,0,1.69,1.69,0,0,0,.67,0,1.46,1.46,0,0,0,.3.28,1.6,1.6,0,0,0,.34.18,1.18,1.18,0,0,1-.23.05,1.28,1.28,0,0,0,.26,0l.17.05-.18.07-.19,0h0a1.92,1.92,0,0,1-.74,0l-.3-.08.3.09a1.94,1.94,0,0,0,.84,0l.13,0a1.4,1.4,0,0,1-.27.07,1.6,1.6,0,0,0,.29-.06h0l.14,0,.16,0a.54.54,0,0,1-.17.05h-.1a.18.18,0,0,0,.1,0,.62.62,0,0,0,.24-.07,1.51,1.51,0,0,0,.38-.05l0,0a2,2,0,0,1-.22.16l.23-.15.06,0a1.87,1.87,0,0,0,.35-.14v0l-.07.08a2.29,2.29,0,0,1-.7.54.77.77,0,0,1-.27.07.74.74,0,0,0,.28-.06,2.11,2.11,0,0,0,.64-.42,3.15,3.15,0,0,1-.19.27,2.18,2.18,0,0,1-.44.28.78.78,0,0,1-1-.29,2,2,0,0,1-.18-.31,2,2,0,0,0,.17.32.83.83,0,0,0,1,.35,2.67,2.67,0,0,0,1-.72l0,0,0,0-.09.1a2.54,2.54,0,0,1-.78.62,1.05,1.05,0,0,1-.36.1,1,1,0,0,0,.36-.09,2.62,2.62,0,0,0,.81-.59L174,37a5.08,5.08,0,0,1-.28.51l-.21.21a2.77,2.77,0,0,1-.29.23,2.78,2.78,0,0,0,.3-.22l.14-.12-.12.17.16-.21c.11-.11.22-.22.31-.33l-.12.22a2.61,2.61,0,0,1-.35.33,2.26,2.26,0,0,1-.18.13c.08,0,.12-.06.19-.12a2.35,2.35,0,0,0,.27-.21l0,.06a3.65,3.65,0,0,1-.65.77l-.26.22.27-.2a3.77,3.77,0,0,0,.69-.75c.08-.11.15-.22.22-.33l.06-.06.06-.06a5,5,0,0,1-.25.47l-.17.26.18-.25a5.54,5.54,0,0,0,.35-.6c.11-.13.22-.28.32-.42l-.06.17,0,0-.17.21.18-.19-.05.14c-.09.14-.19.27-.29.39l-.17.2.18-.19.23-.28-.07.16-.07.14,0,0,0,0-.07.14.09-.17.13-.17c.16-.23.31-.47.46-.71s.16-.29.24-.43h0v0a8.9,8.9,0,0,1-.66,1.16,4.81,4.81,0,0,1-.53.65l-.2.19.21-.17a4.94,4.94,0,0,0,.56-.62l.24-.33-.2.36a4.92,4.92,0,0,1-.56.7,2.19,2.19,0,0,1-.8.54,2,2,0,0,1-.32.08,2,2,0,0,0,.32-.07,2.25,2.25,0,0,0,.84-.51l.09-.09-.12.16-.2.26.12-.13.18-.16a5.31,5.31,0,0,0,.58-.68l.13-.19-.1.18-.15.26.17-.24.21-.34v-.07q.13-.21.25-.44l0,.09-.2.4a6.12,6.12,0,0,1-.48.77c-.07.1-.11.15-.19.25.09-.09.12-.14.2-.24a6.31,6.31,0,0,0,.49-.71,3.87,3.87,0,0,1-.57.87,1.89,1.89,0,0,1-.52.4l-.19.08.2-.06a1.89,1.89,0,0,0,.55-.38,4,4,0,0,0,.78-1.15v.06a5.62,5.62,0,0,1-.3.61,3.36,3.36,0,0,1-.46.63,2.27,2.27,0,0,1-.18.17,2.36,2.36,0,0,0,.19-.16,3.45,3.45,0,0,0,.49-.62,5.54,5.54,0,0,0,.29-.53v.07a4.84,4.84,0,0,1-.52,1,2.49,2.49,0,0,1-.58.57,1.47,1.47,0,0,1-.23.13,1.36,1.36,0,0,0,.24-.12,2.55,2.55,0,0,0,.61-.55,4.4,4.4,0,0,0,.43-.67,3.19,3.19,0,0,1-1,1.33,2,2,0,0,1-.87.33l-.31,0h.31a2,2,0,0,0,.9-.29,2.74,2.74,0,0,0,.82-.81l-.13.2a2.76,2.76,0,0,1-.63.65,1.76,1.76,0,0,1-.26.16,1.68,1.68,0,0,0,.27-.15,2.84,2.84,0,0,0,.66-.63,4.8,4.8,0,0,0,.45-.75l0,.07v0l-.14.3a3.49,3.49,0,0,1-.52.78,1.91,1.91,0,0,1-.23.23,1.86,1.86,0,0,0,.24-.22,3.59,3.59,0,0,0,.56-.77l.13-.25v0c0,.18-.06.35-.09.52a4.23,4.23,0,0,1-.23.76c0,.1-.06.14-.1.24,0-.09.08-.13.12-.23a4.42,4.42,0,0,0,.27-.76c0-.12.06-.25.09-.38l0,.11,0,.11c0,.09,0,.18-.05.27s0,.17-.06.28c0-.11.05-.16.08-.27l.06-.23,0,.11-.09.25c0,.1-.05.15-.09.24l.12-.24.09-.2,0,.09a5.12,5.12,0,0,1-.13.55l-.09.28.11-.27a4.94,4.94,0,0,0,.14-.49l0,.15c0,.14-.06.27-.1.41a3.82,3.82,0,0,1-.41.94l-.19.29.2-.28a4,4,0,0,0,.46-.93c0-.1.06-.19.09-.29v0l0,.07,0,.18-.1.3.11-.3,0-.15c0,.11,0,.22.08.32s.05.13.07.2v0l0,0-.12.31.15-.3h0l0,.12c.07.2.16.4.23.58l.07.2a11.46,11.46,0,0,1,.44,1.18,8.1,8.1,0,0,1,.17.92c-.06.15-.06.31-.13.47a1.09,1.09,0,0,1-.09.14l-.06.06s0,.06,0,.09l0,.11,0,.08c0,.08-.06.17-.09.23s-.1.18-.14.27l0,.09-.06.09c0,.06-.05.14-.09.2s-.14.23-.2.35L176,45c-.06.13-.13.26-.17.38s0,.07,0,.11a5.63,5.63,0,0,0-.19.67c0,.2-.07.41-.1.62a1.29,1.29,0,0,0,0,.26.81.81,0,0,0,.09.32,2.19,2.19,0,0,0,0,.44l0,.09,0,.13c0,.08.05.17.08.25s.08.3.12.46a1.31,1.31,0,0,0,.08.25,1.45,1.45,0,0,1,.08.37,3.3,3.3,0,0,0,.11.5,4.83,4.83,0,0,1,.1.53,2,2,0,0,0,.07.22c0,.06,0,.13,0,.2s.05.14.07.22a1.6,1.6,0,0,1,0,.29c0,.1,0,.19,0,.29s0,.17,0,.25v.54c0,.35,0,.69,0,1a.68.68,0,0,1,0,.25,1.72,1.72,0,0,0,0,.21c0,.06-.06.12-.07.17a1.66,1.66,0,0,1,0,.24,1.76,1.76,0,0,1-.08.21.86.86,0,0,0-.08.16s0,.08,0,.12a.9.9,0,0,0,0,.09c0,.13,0,.17.12.21a1.75,1.75,0,0,0,.2,0s0,0,.07,0h.12l.11,0c0,.48,0,.95,0,1.41,0,.28,0,.57-.07.85s-.06.56-.09.83a8.58,8.58,0,0,1-.29,1.53,10.74,10.74,0,0,1-.53,1.29l-.27.62a7.85,7.85,0,0,0-.53,1.74,5.82,5.82,0,0,0-.09.64c0,.59,0,1.18,0,1.74s0,1,0,1.5a3,3,0,0,1,0,.47,1.07,1.07,0,0,0-.64,0,1.09,1.09,0,0,0-.24.12,1.73,1.73,0,0,0-.19.11c-.06,0-.1.1-.16.15l-.09.06c-.19.16-.35.39-.53.53a6.65,6.65,0,0,1-.56.47l-.11.08,0,0,0,0,0,0,0,0,0,0-.11.09-.09.06-.09.06a1,1,0,0,0-.14.17.52.52,0,0,0-.33.21.64.64,0,0,0,.11.44s0,.1.06.14l0,0,0,.06.11.17.13.17a1.64,1.64,0,0,1,.24.14,6.13,6.13,0,0,1,.4,1.09l.1.27c.05.14,0,.19,0,.32s0,.07,0,.11l-.11.32a.82.82,0,0,0-.07.44.5.5,0,0,0-.19.35,2.58,2.58,0,0,0,.7.29l.07,0,.16,0a.58.58,0,0,0,.14,0h.07c.07,0,.08-.06.13-.08h.09c.14,0,.26.11.39.17s.09.2.17.26.19.07.24.15a1.15,1.15,0,0,0,.77.18,8.23,8.23,0,0,0,1,.33s.08,0,.06.06.19,0,.3.06l.21,0c0,.06.1,0,.1.11s.41.33.54.15c0,0,0-.08,0-.08a1.63,1.63,0,0,0,.59-.06.24.24,0,0,1,0-.06s-.06-.05,0-.08.19-.25.3-.36c.52,0,1,0,1.52,0A9.89,9.89,0,0,0,181,75l.1,0h.13c.24,0,.43.1.66.12a4.4,4.4,0,0,0,.59,0,8.53,8.53,0,0,0,1.39-.14c.08,0,.18-.07.23-.06a1.61,1.61,0,0,0,.1.82,2.61,2.61,0,0,0,1,.2,6.44,6.44,0,0,0,1.17,0,7.74,7.74,0,0,0,1.3-.23l.23-.09.11,0a1.87,1.87,0,0,1,.31-.17,3.47,3.47,0,0,1,.37,0,3.34,3.34,0,0,0,.52-.09.94.94,0,0,0,.43-.18,2.78,2.78,0,0,0,0-.61c0-.07,0-.12,0-.18s0-.23,0-.35,0-.3-.06-.45h.36A1.78,1.78,0,0,0,190,73,1.82,1.82,0,0,0,190,72.58ZM179.9,59c0,.09-.07.18-.1.27a3.19,3.19,0,0,1-.27.23l-.11.08c-.11.07-.22.17-.33.26a1.38,1.38,0,0,1-.16.12c.05-.17.11-.33.14-.5a2.36,2.36,0,0,1,.06-.27c0-.06,0-.09.07-.17l0-.12c.1-.27.19-.59.3-.88a.08.08,0,0,0,0,0A2.94,2.94,0,0,1,179.9,59Zm-7-22.13h.07l-.06,0h-.09Zm-.11-.14.17-.09h.12l-.14.09Zm-.68-.24-.17-.14.17-.06.07.06-.06,0,.06,0,0,0,.13.08-.18,0h0Zm.23-2.61a1.08,1.08,0,0,1-.26.06l-.12-.08.2,0h.17Zm.35-1.16v0h.05l0,0h0Zm.55-.32-.06.11-.27.11.11-.14Zm-.16,0,0,0,.2-.07v0Zm.06,4.17h-.06l0,0a4.23,4.23,0,0,0,.49-.4h0l0,0a4.22,4.22,0,0,1-.43.42Zm-.45,0,.11-.05.21-.12a.83.83,0,0,0,.3-.08l-.2.17-.13.09A1.11,1.11,0,0,1,172.67,36.56Zm-.38-2.9h.16l.11,0-.08,0h-.1Zm.37-.34,0,0,.1,0,0,0-.21.06a.83.83,0,0,1-.18-.11l.21,0Zm.15-.28.05,0,.07.06,0,0-.25.1-.1,0-.14-.11.31-.08-.08.08Zm0-.15,0,0,.18-.05.07,0,0,.06Zm.11.06.25-.09-.17.08-.1,0h0Zm.3,2.81.21-.08-.08.08Zm.3-.29.13-.08,0,0a.39.39,0,0,1-.18.11Zm0,0,.19-.18-.06.09Zm-.7-1.65h.11l-.08.05h-.08Zm.4-.09Zm-.25.08,0,0h0Zm-.31-.27.14-.08.06,0H173l-.09.09-.12,0-.17,0Zm0,0,0,0,.13,0-.05,0Zm.6-.53h0l-.05,0Zm.12,0-.08,0h0l0,0,0-.07.1,0Zm0,.06h0l-.17.09,0,0Zm-.24.07-.06,0L173,33l0,0,.07,0,.2-.08Zm0,.13.08,0,0,0h0l-.05,0-.16,0,.09-.1Zm.73.93v0l-.17.14Zm.1-.09,0,0,0,0Zm-.14,1.75a.79.79,0,0,1-.21.14l.18-.17.05-.06,0,0,.07-.06Zm-.23.16.17-.09-.07.08,0,0-.2.11.1-.09Zm-.15-.19h0l.14-.12Zm.08.07h0l-.06.05,0,0Zm-.12.11h0l-.06,0Zm0-1-.08.07v0s0,0,0,0l.08-.11.24-.16,0,0-.26.22v0Zm.34-.12-.05.05v0Zm.14.29L174,35l0,0,0,.1-.09.1-.16.14Zm-.64.78.06,0-.1.09-.09,0Zm-.05.09-.13.11h-.08l.13-.1Zm-.24.19h0l-.16.11-.08,0h0l.23-.15Zm-.13.16.25-.15a.78.78,0,0,0,.28-.09,3.42,3.42,0,0,1-.32.26h-.2Zm.63-.27h0l.21-.1h0l-.21.22a1.06,1.06,0,0,1-.4.19A3.36,3.36,0,0,0,173.41,36.07Zm.79-2v0h0Zm-.17.2-.1.11-.12.11v0l.22-.21Zm-.44-1.87h0l0-.09h0Zm-.15,0,0,.1-.08,0,0-.1Zm-.1.2v0l-.3.14,0-.06Zm-.62.58.27-.09,0,0-.35.13,0,0Zm.23,0-.06.07h-.12Zm-.55.11.15.11-.19,0,.2,0h0l0,0a.44.44,0,0,1-.18,0,.4.4,0,0,0,.21,0l.13,0-.29.07a1,1,0,0,1-.37-.28A1.33,1.33,0,0,0,172.39,33.35Zm.43.22h0l-.13.09-.05,0-.12,0Zm.77,1h0Zm.16,0v0l-.11.09-.06,0Zm-.49.43h0l0,0,0,0-.17.1-.14.07Zm.07.11v0h0v0l0,0,.27-.17h0l0,0-.27.19h0l-.2.13h0l.16-.13Zm-.18.17.34-.2c-.13.13-.27.26-.42.38l-.12,0h-.14l.27-.19Zm.44-.16-.18.18-.05,0,0,0-.07.07-.08,0Zm-.18.45a.38.38,0,0,0,.2-.09l.11-.12.09-.06-.27.28-.06.06a1.78,1.78,0,0,1-.3.13h0Zm-.31.19h0l.17-.13Zm-.06,0H173l0,0Zm-.07,0h0l-.16.13h-.07Zm.12,0,.14,0-.1,0-.2,0Zm0,.13L173,36l-.09,0H173l-.11.08h0a.64.64,0,0,1-.21,0l.15-.1Zm-.31.24-.22.15-.06,0,.06,0h0l0,0a1.9,1.9,0,0,1-.3.12l-.16-.09,0,0,.19-.09.29-.16Zm-.11.19.08,0h.13l-.17.11-.12.06a1.22,1.22,0,0,1-.25-.08A2,2,0,0,0,172.73,36.36Zm.74-4h0l0,0Zm-.17.13.06,0,0,.06,0,0h0v0l-.16.08.09-.13Zm-.43,0-.18.06-.13,0,0,0,.36-.1h0Zm-.17.11.12,0-.1.15-.06,0h0l-.07-.11Zm.05.21.11-.12.27-.09-.08.13-.13.06-.19.07h0Zm0,.13-.18.06-.08,0v0s0,0,.05,0l.11-.08.07,0Zm-.25,0s0,0,0,0v0l-.1,0,0-.08.17,0Zm0,.15v0h0l.28-.08,0,0-.31.1h-.06l0,0Zm-.08.07-.14,0-.24,0,.25,0,.15,0,.12.12-.09,0,.09,0,0,0h0a1.49,1.49,0,0,1-.5,0h0a1,1,0,0,1-.12-.19l.29,0,.14,0Zm-.36.19h0l-.17,0a1,1,0,0,1-.08-.15H172A.91.91,0,0,0,172.07,33.31Zm0,0h0a1.11,1.11,0,0,0,.33.3l-.15,0a1.26,1.26,0,0,1-.3-.27l-.08-.11Zm.35.52h-.07l-.09,0h.09Zm.19.07h0Zm0,0h0Zm.13.11.07,0,.18,0-.23.15-.21,0Zm-.35.41h-.25a1.6,1.6,0,0,0,.35-.08Zm.53,0h0l-.11.06Zm.42.09h0l-.15.14-.2.16.21-.15.23-.2.08,0v0a8.84,8.84,0,0,1-.69.61l-.28.21-.06-.06.05.06-.06,0h-.29l.14-.07A6.92,6.92,0,0,0,173.31,34.58Zm-.51.58c.21-.15.41-.31.61-.48v0h0l-.41.36-.14.06.12,0-.29.22-.16,0h0Zm-.19.2h0l0,0,0,0Zm0,.05.15-.09.17-.06-.06,0,.1-.06.11,0,.07,0-.19.16-.05,0,0,0-.25.19,0,0-.06-.05Zm.19.06H173l-.1.08-.09.07-.12-.08Zm.16.12.21-.16.08,0-.3.26-.06,0Zm-.06.12-.3.22h-.15l.4-.25Zm-.34.25,0,0-.05,0Zm.15,0h.07l-.12.08-.05,0Zm-.1.12-.26.16-.19.1-.07-.06.21-.09.27-.14Zm-.48.44.21,0,.24.1,0,0,0,0,.25,0-.15.08a1.36,1.36,0,0,1-.56-.19Zm1.23,0h0l-.13.12,0,0Zm.23-.11-.05.06-.06,0Zm-.57.44.19,0,0,0h0l-.2,0Zm1-.5q-.15.22-.32.42l.15-.26Zm2.14-8.72.11-.06-.09.05Zm3.48.86,0,0h0Zm.19.27v0h-.06l0,0h.07Zm-.07.07,0,0h0Zm0-.07h0Zm0,0-.07-.07v0l.1.09h0Zm-.06-.06h0l.06.06h0Zm-.16-.31-.05,0h0l-.05-.08.05,0,.08.12Zm-3.5-.65,0,0,.11-.07h0Zm-1.28,8.09.16-.28,0,.06-.25.48Zm-.2.62-.2.33v0Zm5.43-7.1h-.14l0-.15.1.13-.1-.14v0l0-.07.08.12-.08-.13v0l.08.11.13.16Zm-.16-.37a2.9,2.9,0,0,0,.25.32l0,0a3.16,3.16,0,0,1-.27-.41h0Zm0-.08h0l0-.08h0l.08.07-.07-.07h.06l0,.07Zm0,0,0,0,0,0Zm0-.1-.14-.14,0,0,.19.17Zm-.12-.43c.12.13.24.26.37.37l0,0h0c-.16-.16-.3-.34-.46-.51Zm.07.21.22.22H180l-.21-.21,0,0-.08-.13v0l.05,0,.14.16.12.13-.12-.14-.06-.07.18.15.1.08-.1-.09-.09-.08-.13-.16-.06-.07Zm-.34-.34.07.07.25.28-.17-.16-.19-.21,0,0Zm-.14-.06.06.08,0,0-.08-.09ZM176,27.75a2.51,2.51,0,0,1,.4-.26,2.56,2.56,0,0,0-.36.24h0l-.06,0Zm0,0,.06,0h0l-.09.08-.08.06Zm-2,3.39h0v0l0,0Zm-.25.12,0,0,0,.05,0,0Zm0,.7V32l-.15.07,0-.07Zm-.43-.65a.63.63,0,0,1-.23,0l.2,0,.31-.09v0A1.12,1.12,0,0,1,173.2,31.34Zm.19.88.13-.05v0l-.13.06Zm0,.11a.68.68,0,0,1-.12.12s0,0,0,0h0l.06-.11Zm-.2-.17.16-.06,0,.07-.18.08Zm-1.28-.3h.36l.32.06-.37.07A1.28,1.28,0,0,1,171.93,31.85Zm.73.19a1.38,1.38,0,0,1-.37,0,3.55,3.55,0,0,0,.45-.08,1.87,1.87,0,0,0,.39,0Zm-.68.31a3,3,0,0,0,.65-.09l-.2.06a2.56,2.56,0,0,1-.51.08Zm.46,0a5.28,5.28,0,0,0,.56-.15l-.06.11-.06,0a3.76,3.76,0,0,1-.8.21l-.29,0a.57.57,0,0,1,.1-.16A2.6,2.6,0,0,0,172.43,32.37Zm-.69.51a.51.51,0,0,1,0-.3h.29a3.32,3.32,0,0,0,.45-.07l0,0a2.26,2.26,0,0,1-.46.08h0a2.26,2.26,0,0,0,.48-.05l.06.12-.18,0,.18,0,0,0v0l-.1.11-.22.05a.35.35,0,0,1,0-.11.28.28,0,0,0,0,.11h-.06L172,33l.23,0h.06l0,.08-.11,0-.3,0h-.15A.85.85,0,0,1,171.75,32.88Zm-.06.22h.06a1.19,1.19,0,0,0,.14.29l-.11-.15Zm.39.55,0,0,.13.08h-.08l-.14-.11Zm-.23.26a.82.82,0,0,1-.37-.28,1.69,1.69,0,0,0,.64.18h.06l.08.05h-.33l0,0,0,0h0l.11.08A.42.42,0,0,1,171.84,33.91Zm.37.11h0l.27-.07.07,0-.24,0,.27,0h.06l-.12.06-.14,0Zm-.68.07,0-.06.17.11a1,1,0,0,0,.8,0l.21,0-.12.06-.09,0h.06a1.63,1.63,0,0,1-.61.15,1,1,0,0,1-.26,0A.65.65,0,0,1,171.53,34.1Zm.38.37h.38a1.36,1.36,0,0,1-.39.06l-.15-.09Zm0,.47a1.52,1.52,0,0,1-.4,0l.31-.09.1,0a2.16,2.16,0,0,0,.38-.05Zm.06,0a4.4,4.4,0,0,0,.45-.23,1.78,1.78,0,0,0,.32-.1l-.34.24A1.69,1.69,0,0,1,172,34.93Zm-.16.33.09-.07.25-.12.36-.2.08,0h0a3.78,3.78,0,0,1-.89.52Zm-.15.21a3.38,3.38,0,0,0,.79-.36l-.21.14-.2.12h0a2.44,2.44,0,0,1-.39.17Zm.45-.09.18,0h.09a3.79,3.79,0,0,1-.46.26l-.31.12a.75.75,0,0,1,0-.2A2.7,2.7,0,0,0,172.13,35.38Zm-.45.63a.53.53,0,0,1-.05-.23l.32-.11a3.85,3.85,0,0,0,.53-.28h.06l0,0a3,3,0,0,1-.59.31,2,2,0,0,1-.21.07l.22-.06a3.08,3.08,0,0,0,.62-.29l.07.06,0,0-.06,0-.22.14.23-.13.06,0,.12.09-.38.26-.07-.06a.4.4,0,0,1-.08-.13.34.34,0,0,0,.07.14l0,.06h0l-.25-.07.25.08h0l-.13.08-.25.12.25-.1.16-.08.07.07-.22.13-.23.11-.09-.09.08.1-.16.06A1,1,0,0,1,171.67,36Zm0,.4.12,0,.16.15h0l0,0a1.46,1.46,0,0,0,.48.24l-.1,0a1.53,1.53,0,0,1-.39-.18A1.39,1.39,0,0,1,171.71,36.4Zm.73.45.11,0,.16,0-.08,0Zm-.06.2.31-.11h.09a2.42,2.42,0,0,1-.35.16l-.14,0Zm.2.08-.12,0a2.57,2.57,0,0,0,.39-.16l.24,0a1.79,1.79,0,0,1-.31.21Zm.29,0a2,2,0,0,0,.28-.18h0l.11-.07a2.21,2.21,0,0,0,.32-.16,4.09,4.09,0,0,1-.32.33A1.53,1.53,0,0,1,172.87,37.15Zm.45-.11a4.5,4.5,0,0,0,.4-.39l0,0-.1.21,0,.06A1.76,1.76,0,0,1,173.32,37Zm0,.37a3.73,3.73,0,0,0,.23-.31l.27-.28.07-.06,0,0A4.38,4.38,0,0,1,173.32,37.41Zm.43,0a6.06,6.06,0,0,0,.34-.59l.13-.17-.17.38C174,37.21,173.87,37.33,173.76,37.46Zm.41-.35.11-.22,0,0,0,.06,0,.09Zm.51-.57h0q.2-.3.37-.62h0l-.12.28-.08.15q-.12.2-.26.4Zm-.14.34.06-.07h0l-.09.15Zm-.18.43-.08.13,0-.05.12-.24.15-.21Zm.24.19a5.05,5.05,0,0,1-.55.7l-.15.14.07-.08c.15-.18.3-.37.44-.56s.21-.27.3-.41Zm2,36.71a1.59,1.59,0,0,1-.14-.41h0c.1,0,.12.16.17.24A.57.57,0,0,1,176.54,74.2Zm3-1.26c-.07,0-.08.13-.19.12s.13-.1.19-.17S179.49,72.92,179.5,72.95Zm.5-.51s0-.07,0-.06S180,72.4,180,72.43Zm1.5-9.09a1,1,0,0,1,0,.14c0,.11-.15.17-.19.29a13.83,13.83,0,0,1,0,1.45c0,.12,0,.25,0,.36s0,.24-.07.36,0,.25-.06.36a5,5,0,0,1-.2.65,8.11,8.11,0,0,1-.44,1.26,2,2,0,0,1-.06.5c0,.11,0,.22,0,.32s0,.19-.07.27a1.2,1.2,0,0,0-.07.27c0,.14.09.29.09.44a.91.91,0,0,1-.14.38c0,.15,0,.28,0,.42s-.12.21-.19.3a1.67,1.67,0,0,0,0,.35,3.45,3.45,0,0,0,0,.39,1.75,1.75,0,0,0,.11.36.94.94,0,0,0-.13.29c-.09,0-.14.14-.21.2s0,0-.11,0,0,.09,0,.14-.14.1-.21.15-.11.16-.19.21,0,0,0,0a.74.74,0,0,0-.33.24c-.21.08-.41.17-.61.26l-.6.27c-.06,0-.08.09-.16.09s0-.14-.09-.2a.73.73,0,0,1-.19-.06,1.09,1.09,0,0,1-.2-.09h0s0,0,0,0-.11-.09-.14-.14a2.57,2.57,0,0,1-.39-1,.42.42,0,0,0-.17,0A5.43,5.43,0,0,1,176.3,71c0-.22,0-.45.09-.68s0-.26.17-.32a.26.26,0,0,1,.1-.2c.1-.2.23-.36.31-.58h.16a1.86,1.86,0,0,0,.37-.71c0-.09,0-.12,0-.2.14-.33.27-.67.41-1a9.82,9.82,0,0,1,.49-.89c.35-.58.7-1.16,1-1.74l.39-.67.26-.44.06-.12.13-.21.18-.32c.08-.15.15-.31.24-.45l.27-.41c.2-.29.4-.56.61-.83a2.44,2.44,0,0,1-.19.91,2.74,2.74,0,0,0,.09.38,2.51,2.51,0,0,1,.1.36A2.41,2.41,0,0,1,181.5,63.34Zm1.2-13.61c0,.21-.05.42-.09.64-.09.52-.16,1-.23,1.58,0-.15,0-.3,0-.45a2.43,2.43,0,0,0-.07-.46c0-.1,0-.19,0-.29s-.08-.28-.1-.42a1.32,1.32,0,0,0,0-.28,1.26,1.26,0,0,1,0-.25c0-.18-.06-.36-.07-.54a3.51,3.51,0,0,0,0-.49,2,2,0,0,1,0-.43,1.31,1.31,0,0,0,0-.22,5.35,5.35,0,0,0,.68-.07s0,.07,0,.09,0,.27,0,.39,0,.37,0,.53A4.93,4.93,0,0,1,182.7,49.73Zm3,23.28c0,.05,0,.11-.07.14l0,.08a.4.4,0,0,1-.11.14l-.06,0a1.57,1.57,0,0,0-.17.23c-.15.11-.28.23-.43.33a2.09,2.09,0,0,0-.2.18c-.07.06-.16.1-.23.15l-.11.11s-.06.1-.12.11a1.66,1.66,0,0,0,0-.27c0-.06,0-.11,0-.17s0-.2,0-.3a1.92,1.92,0,0,0,0-.3c0-.1.13,0,.13-.14a2.3,2.3,0,0,0,0-.53s0-.09,0-.14,0-.22-.06-.3-.11-.16-.11-.24,0-.18.06-.26l-.07-.18c0-.08-.12-.15-.14-.26a1.08,1.08,0,0,1,.07-.2,4.18,4.18,0,0,1,.21-.55,2.43,2.43,0,0,0,.13-.21s0-.07,0-.11a2,2,0,0,0,.06-.67,5.67,5.67,0,0,1-.06-.67c0-.21.07-.43.1-.65.11-.74.25-1.46.4-2.18.06-.27.14-.6.19-.91s.11-.86.19-1.29c0,0,0,0,0,0l0,0c.08.21.14.43.21.64,0,.46.06.91.06,1.38s-.09.91-.06,1.38a3.17,3.17,0,0,0,.07.36,3.27,3.27,0,0,1,.07.35c0,.21,0,.44,0,.67,0,.44,0,.88,0,1.32a2.2,2.2,0,0,0,.16,1.18,1.58,1.58,0,0,0-.21.77,2,2,0,0,0,.06.3s0,.09,0,.14,0,.18.1.23.08,0,.09.08A.66.66,0,0,1,185.73,73Zm.11-.06c-.06,0,.06-.14.07-.2S185.89,72.92,185.84,72.95Z"/><path class="cls-4" d="M172,29.19v0h0Z"/><path class="cls-4" d="M172,29.05l0,0Z"/><path class="cls-4" d="M172.65,26.69l0,0,0,0,.11-.14Z"/><path class="cls-4" d="M172.59,26.77v0Z"/><path class="cls-4" d="M172.59,26.75a.34.34,0,0,0,0-.05A.47.47,0,0,1,172.59,26.75Z"/><g id="_Group_" data-name="&lt;Group&gt;"><path class="cls-4" d="M252.47,49.12s3.07-1.46,3.18-3.15-.55-8.18-2-8.92-.52,3.17-.52,3.17-3.11-3.06-3.31-1.85a6.19,6.19,0,0,0,.62,2.91s-5-2.31-4.91-1.68A8.7,8.7,0,0,0,247,42s-4.54-.11-4.58,1.12a1.1,1.1,0,0,0,1.22,1.16s-1,4.17.15,5.78c0,0-10.91,1.41-11.69,2.36s7.74-.29,7.74-.29,6.54,2.29,9.07,2.13,7.28-2.24,8.5-2,3.23.44,3.23.44S258.79,48.88,252.47,49.12Z"/></g><path id="_Path_" data-name="&lt;Path&gt;" class="cls-4" d="M111.93,48.1s2.61-2,2.46-3.68-1.74-8-3.19-8.42,0,3.22,0,3.22-3.33-2.45-3.33-1.23a6.31,6.31,0,0,0,1,2.76S104,39.37,104.11,40s1.74,2,1.74,2-4.2.71-4.05,1.93a1,1,0,0,0,1.3.92s-.29,4.29,1,5.67c0,0-9.85,3.37-10.43,4.44s7.1-1.68,7.1-1.68,6.37,1.07,8.69.46,6.37-3.52,7.53-3.52,3-.15,3-.15S117.72,46.72,111.93,48.1Z"/></g></g></svg>